<svg width="176" height="218" viewBox="0 0 176 218" fill="none" xmlns="http://www.w3.org/2000/svg">
<path d="M128.271 217.89L87.8106 202.33L47.3506 217.89V102.74H128.271V217.89Z" fill="#E7234F"/>
<path d="M171.88 85.89C171.542 85.5975 171.266 85.2395 171.07 84.8376C170.874 84.4356 170.761 83.998 170.738 83.5513C170.716 83.1045 170.784 82.6579 170.939 82.2383C171.094 81.8187 171.333 81.4348 171.64 81.11C172.624 80.0634 173.353 78.8038 173.77 77.4293C174.187 76.0549 174.282 74.6026 174.045 73.1858C173.809 71.7689 173.249 70.4258 172.409 69.2609C171.568 68.096 170.47 67.1409 169.2 66.47C168.803 66.2637 168.451 65.9791 168.166 65.6333C167.882 65.2876 167.67 64.8878 167.544 64.458C167.418 64.0283 167.38 63.5774 167.433 63.1327C167.485 62.6879 167.627 62.2584 167.85 61.87C168.566 60.6248 168.984 59.2314 169.073 57.7981C169.161 56.3648 168.918 54.9304 168.362 53.6066C167.805 52.2828 166.951 51.1053 165.865 50.1657C164.779 49.2262 163.49 48.5501 162.1 48.19C161.662 48.0833 161.25 47.8879 160.89 47.6159C160.53 47.3438 160.23 47.0009 160.008 46.6082C159.786 46.2155 159.647 45.7815 159.599 45.3328C159.551 44.8842 159.596 44.4306 159.73 44C160.14 42.6218 160.226 41.1676 159.982 39.7506C159.737 38.3337 159.169 36.9923 158.322 35.831C157.474 34.6697 156.369 33.7198 155.094 33.0553C153.819 32.3908 152.408 32.0296 150.97 32C150.523 31.9953 150.08 31.8998 149.671 31.7193C149.261 31.5388 148.892 31.2771 148.586 30.9499C148.281 30.6227 148.044 30.2368 147.892 29.8157C147.74 29.3946 147.675 28.947 147.7 28.5C147.779 27.0672 147.525 25.6356 146.96 24.3166C146.395 22.9977 145.533 21.8268 144.442 20.8951C143.351 19.9634 142.059 19.296 140.668 18.9448C139.277 18.5935 137.823 18.5679 136.42 18.87C135.983 18.9704 135.53 18.9808 135.088 18.9005C134.647 18.8203 134.226 18.6511 133.852 18.4033C133.478 18.1554 133.158 17.834 132.912 17.4587C132.666 17.0834 132.498 16.6619 132.42 16.22C132.16 14.8116 131.579 13.4821 130.722 12.3346C129.865 11.187 128.755 10.2521 127.479 9.60227C126.202 8.95249 124.794 8.60528 123.362 8.58754C121.929 8.5698 120.512 8.88201 119.22 9.49997C118.818 9.69627 118.381 9.80902 117.934 9.83139C117.487 9.85377 117.04 9.78531 116.62 9.63015C116.201 9.47499 115.817 9.23636 115.492 8.92867C115.167 8.62098 114.908 8.25062 114.73 7.83997C114.156 6.5242 113.286 5.35866 112.188 4.43406C111.09 3.50946 109.793 2.85074 108.399 2.50917C107.005 2.1676 105.55 2.1524 104.149 2.46473C102.748 2.77707 101.438 3.40854 100.32 4.30997C99.9736 4.59366 99.573 4.80423 99.1427 4.929C98.7124 5.05377 98.2613 5.09015 97.8165 5.03596C97.3718 4.98177 96.9426 4.83813 96.5549 4.61368C96.1671 4.38923 95.8288 4.08863 95.5603 3.72997C94.7161 2.60425 93.6279 1.6843 92.3774 1.03912C91.1269 0.393943 89.7466 0.0402922 88.3399 0.00469255C86.9333 -0.0309071 85.5368 0.252469 84.2553 0.833565C82.9737 1.41466 81.8404 2.27839 80.9403 3.35997C80.3976 4.01199 79.6228 4.4276 78.7794 4.51903C77.936 4.61045 77.0901 4.37055 76.4203 3.84997C75.3159 2.97792 74.0281 2.36758 72.6539 2.06483C71.2796 1.76208 69.8546 1.77481 68.4859 2.10205C67.1173 2.42929 65.8406 3.06254 64.752 3.95418C63.6633 4.84582 62.7909 5.97265 62.2003 7.24997C62.0154 7.65756 61.7497 8.0234 61.4194 8.32538C61.089 8.62737 60.7008 8.85921 60.2783 9.0069C59.8558 9.1546 59.4077 9.21506 58.9612 9.18465C58.5147 9.15424 58.0789 9.03358 57.6803 8.82997C56.3989 8.1788 54.9844 7.8325 53.5472 7.81808C52.1099 7.80365 50.6887 8.1215 49.3945 8.74682C48.1003 9.37214 46.9681 10.288 46.0862 11.423C45.2043 12.558 44.5965 13.8814 44.3103 15.29C44.224 15.7256 44.0509 16.1395 43.8013 16.5069C43.5518 16.8742 43.2308 17.1876 42.8575 17.4284C42.4843 17.6691 42.0664 17.8323 41.6288 17.9081C41.1912 17.984 40.7428 17.971 40.3103 17.87C38.9148 17.5339 37.4604 17.5243 36.0606 17.8421C34.6607 18.1598 33.353 18.7963 32.2393 19.702C31.1256 20.6077 30.2359 21.7581 29.6394 23.0638C29.043 24.3695 28.7558 25.7952 28.8003 27.23C28.8179 27.6776 28.7446 28.1242 28.585 28.5428C28.4254 28.9614 28.1828 29.3433 27.8717 29.6657C27.5605 29.988 27.1874 30.244 26.7747 30.4184C26.362 30.5927 25.9183 30.6817 25.4703 30.68C24.0381 30.6828 22.6258 31.0149 21.3424 31.6507C20.0591 32.2865 18.9392 33.2089 18.0692 34.3466C17.1992 35.4843 16.6026 36.8068 16.3253 38.2119C16.0481 39.6171 16.0977 41.0671 16.4703 42.45C16.591 42.8829 16.6223 43.3359 16.5622 43.7814C16.5021 44.2268 16.3519 44.6553 16.1208 45.0408C15.8897 45.4263 15.5825 45.7607 15.2179 46.0236C14.8534 46.2865 14.4391 46.4724 14.0003 46.57C12.5999 46.8942 11.2932 47.5373 10.182 48.4493C9.07077 49.3612 8.18505 50.5173 7.59378 51.8276C7.00252 53.1378 6.72167 54.5669 6.77311 56.0035C6.82454 57.44 7.20688 58.8453 7.89033 60.11C8.10704 60.5016 8.24205 60.9332 8.28721 61.3785C8.33236 61.8239 8.28673 62.2737 8.15305 62.7009C8.01938 63.1281 7.80045 63.5237 7.5095 63.8639C7.21856 64.2041 6.86164 64.4817 6.46033 64.68C5.17488 65.3211 4.05483 66.2505 3.18747 67.3955C2.32011 68.5406 1.72887 69.8705 1.45982 71.2815C1.19077 72.6926 1.25118 74.1467 1.63633 75.5306C2.02149 76.9145 2.72099 78.1908 3.68033 79.26C3.97748 79.5892 4.20521 79.975 4.34991 80.3943C4.49461 80.8135 4.55331 81.2576 4.52251 81.7001C4.4917 82.1425 4.37203 82.5742 4.17063 82.9694C3.96923 83.3646 3.69024 83.7151 3.35033 84C2.24089 84.9194 1.35948 86.0832 0.775178 87.4003C0.19088 88.7174 -0.08042 90.152 -0.0174535 91.5915C0.0455131 93.031 0.441035 94.4364 1.13811 95.6974C1.83518 96.9585 2.81485 98.0409 4.00033 98.86C4.37061 99.1112 4.68592 99.4352 4.92709 99.8121C5.16826 100.189 5.33025 100.611 5.40321 101.053C5.47617 101.494 5.45857 101.946 5.35149 102.38C5.24441 102.815 5.05009 103.223 4.78033 103.58C3.92074 104.73 3.33808 106.062 3.07769 107.474C2.8173 108.886 2.88622 110.339 3.27908 111.72C3.67193 113.1 4.37813 114.372 5.34271 115.435C6.30728 116.499 7.50421 117.325 8.84033 117.85C9.25879 118.01 9.64043 118.253 9.96212 118.565C10.2838 118.877 10.5389 119.251 10.7118 119.664C10.8848 120.077 10.9721 120.521 10.9684 120.969C10.9647 121.417 10.8701 121.86 10.6903 122.27C10.1113 123.59 9.84572 125.027 9.91447 126.467C9.98322 127.907 10.3844 129.311 11.0866 130.571C11.7888 131.83 12.773 132.909 13.962 133.725C15.1511 134.54 16.5127 135.069 17.9403 135.27C18.384 135.329 18.8111 135.478 19.1958 135.706C19.5804 135.935 19.9147 136.24 20.1783 136.602C20.4419 136.963 20.6294 137.375 20.7294 137.811C20.8295 138.247 20.84 138.7 20.7603 139.14C20.5195 140.551 20.6064 141.998 21.0143 143.369C21.4222 144.741 22.1402 146.001 23.1127 147.05C24.0852 148.1 25.2861 148.912 26.6227 149.424C27.9592 149.935 29.3954 150.132 30.8203 150C31.2653 149.956 31.7145 150.003 32.1411 150.137C32.5676 150.271 32.9627 150.489 33.3026 150.78C33.6426 151.07 33.9203 151.426 34.1193 151.827C34.3182 152.227 34.4342 152.664 34.4603 153.11C34.5428 154.543 34.9546 155.938 35.6637 157.186C36.3728 158.435 37.3601 159.503 38.5489 160.308C39.7378 161.112 41.0961 161.632 42.5185 161.827C43.9409 162.022 45.389 161.886 46.7503 161.43C47.1728 161.285 47.6202 161.226 48.0658 161.259C48.5113 161.291 48.9457 161.413 49.3428 161.618C49.7399 161.822 50.0915 162.105 50.3763 162.449C50.6612 162.793 50.8735 163.192 51.0003 163.62C51.4106 164.996 52.1331 166.259 53.1114 167.31C54.0897 168.362 55.2975 169.173 56.6407 169.681C57.9839 170.189 59.4262 170.38 60.8554 170.24C62.2846 170.099 63.662 169.63 64.8803 168.87C65.2573 168.627 65.6797 168.464 66.1219 168.389C66.5641 168.314 67.0168 168.33 67.4526 168.436C67.8884 168.542 68.2981 168.735 68.657 169.004C69.0159 169.272 69.3164 169.611 69.5403 170C70.2584 171.244 71.2539 172.305 72.4493 173.101C73.6448 173.897 75.0079 174.407 76.4324 174.589C77.8569 174.772 79.3045 174.624 80.6622 174.156C82.02 173.687 83.2513 172.912 84.2603 171.89C84.5728 171.569 84.9471 171.315 85.3606 171.143C85.7741 170.971 86.2182 170.885 86.666 170.89C87.1138 170.894 87.556 170.99 87.9659 171.17C88.3757 171.351 88.7446 171.613 89.0503 171.94C90.0372 172.983 91.2512 173.784 92.598 174.282C93.9448 174.779 95.3881 174.959 96.8159 174.808C98.2437 174.658 99.6175 174.179 100.831 173.411C102.044 172.643 103.063 171.606 103.81 170.38C104.039 169.996 104.343 169.663 104.705 169.4C105.066 169.137 105.477 168.951 105.913 168.851C106.349 168.752 106.8 168.743 107.24 168.823C107.679 168.904 108.098 169.073 108.47 169.32C109.671 170.107 111.037 170.606 112.461 170.779C113.886 170.953 115.332 170.795 116.686 170.319C118.04 169.844 119.267 169.062 120.27 168.035C121.273 167.009 122.026 165.765 122.47 164.4C122.604 163.973 122.823 163.578 123.114 163.239C123.405 162.899 123.762 162.623 124.163 162.425C124.564 162.228 125.001 162.114 125.448 162.091C125.894 162.068 126.341 162.135 126.76 162.29C128.109 162.779 129.552 162.95 130.977 162.792C132.403 162.633 133.773 162.148 134.981 161.374C136.189 160.6 137.202 159.559 137.942 158.33C138.683 157.102 139.13 155.719 139.25 154.29C139.289 153.848 139.416 153.418 139.623 153.026C139.831 152.634 140.116 152.288 140.46 152.008C140.804 151.728 141.201 151.521 141.627 151.397C142.053 151.274 142.5 151.237 142.94 151.29C144.366 151.454 145.81 151.287 147.161 150.802C148.512 150.317 149.733 149.528 150.729 148.495C151.725 147.462 152.47 146.213 152.905 144.846C153.341 143.478 153.456 142.029 153.24 140.61C153.168 140.168 153.186 139.716 153.294 139.282C153.401 138.847 153.595 138.439 153.864 138.081C154.133 137.723 154.471 137.423 154.859 137.2C155.247 136.976 155.676 136.833 156.12 136.78C157.549 136.614 158.92 136.121 160.126 135.338C161.332 134.555 162.341 133.504 163.074 132.267C163.807 131.03 164.244 129.64 164.351 128.206C164.458 126.772 164.232 125.332 163.69 124C163.517 123.587 163.431 123.143 163.435 122.695C163.439 122.247 163.534 121.805 163.715 121.396C163.895 120.986 164.157 120.617 164.485 120.312C164.813 120.007 165.199 119.771 165.62 119.62C166.974 119.125 168.194 118.324 169.186 117.279C170.179 116.234 170.916 114.974 171.34 113.597C171.764 112.22 171.864 110.764 171.631 109.341C171.399 107.919 170.841 106.57 170 105.4C169.738 105.037 169.552 104.625 169.453 104.188C169.355 103.751 169.346 103.299 169.427 102.859C169.509 102.418 169.678 101.999 169.926 101.626C170.175 101.254 170.496 100.935 170.87 100.69C172.069 99.8995 173.069 98.8426 173.792 97.602C174.515 96.3614 174.941 94.9704 175.038 93.5378C175.135 92.1051 174.899 90.6695 174.35 89.3429C173.8 88.0163 172.952 86.8346 171.87 85.89" fill="#FEAF18"/>
<path d="M160.88 86.0899C160.584 85.8371 160.341 85.5264 160.169 85.177C159.996 84.8275 159.896 84.4465 159.876 84.0572C159.855 83.668 159.914 83.2786 160.049 82.9129C160.184 82.5471 160.392 82.2127 160.66 81.9299C161.516 81.0212 162.151 79.9269 162.514 78.7324C162.877 77.538 162.959 76.2758 162.754 75.0443C162.549 73.8129 162.062 72.6455 161.331 71.6334C160.6 70.6214 159.645 69.7919 158.54 69.2099C158.195 69.0299 157.89 68.782 157.643 68.4811C157.396 68.1803 157.213 67.8327 157.103 67.4591C156.994 67.0856 156.961 66.6938 157.007 66.3073C157.053 65.9208 157.177 65.5476 157.37 65.2099C157.992 64.1276 158.355 62.9163 158.432 61.6705C158.509 60.4246 158.297 59.1779 157.813 58.0273C157.329 56.8767 156.587 55.8533 155.642 55.0368C154.698 54.2203 153.579 53.6328 152.37 53.3199C151.993 53.2255 151.638 53.0554 151.328 52.82C151.018 52.5846 150.759 52.2888 150.566 51.9505C150.374 51.6121 150.252 51.2382 150.208 50.8514C150.164 50.4646 150.199 50.0729 150.31 49.6999C150.662 48.5023 150.734 47.2397 150.519 46.01C150.304 44.7803 149.809 43.6165 149.072 42.6089C148.336 41.6013 147.377 40.7769 146.27 40.1996C145.163 39.6223 143.938 39.3076 142.69 39.2799C142.305 39.2763 141.924 39.195 141.57 39.0409C141.217 38.8869 140.898 38.6631 140.633 38.3831C140.368 38.1031 140.162 37.7726 140.028 37.4112C139.893 37.0499 139.833 36.6651 139.85 36.2799C139.928 35.0258 139.713 33.7707 139.223 32.6137C138.733 31.4568 137.981 30.4295 137.025 29.613C136.07 28.7965 134.938 28.2132 133.719 27.9089C132.5 27.6047 131.227 27.5879 130 27.8599C129.621 27.9458 129.228 27.9538 128.845 27.8836C128.462 27.8134 128.098 27.6664 127.774 27.4515C127.449 27.2365 127.172 26.9581 126.958 26.633C126.745 26.3079 126.599 25.9429 126.53 25.5599C126.31 24.3307 125.81 23.1687 125.067 22.1647C124.324 21.1607 123.36 20.3418 122.249 19.7717C121.138 19.2017 119.91 18.8959 118.661 18.8783C117.413 18.8606 116.177 19.1315 115.05 19.6699C114.7 19.8414 114.32 19.9402 113.931 19.9602C113.542 19.9802 113.153 19.9212 112.787 19.7866C112.422 19.6519 112.087 19.4446 111.804 19.177C111.521 18.9095 111.295 18.5873 111.14 18.2299C110.641 17.086 109.885 16.0726 108.93 15.2684C107.976 14.4642 106.849 13.8909 105.636 13.5929C104.424 13.295 103.16 13.2805 101.941 13.5505C100.723 13.8205 99.5829 14.3679 98.6102 15.1499C98.3101 15.3977 97.9628 15.5818 97.5894 15.6912C97.216 15.8006 96.8242 15.8328 96.4379 15.7861C96.0516 15.7393 95.6789 15.6145 95.3423 15.4192C95.0058 15.2238 94.7124 14.9621 94.4802 14.6499C93.7454 13.6708 92.7985 12.8708 91.7104 12.3098C90.6224 11.7487 89.4214 11.4413 88.1977 11.4105C86.9739 11.3797 85.759 11.6264 84.6441 12.132C83.5292 12.6376 82.5433 13.389 81.7602 14.3299C81.2894 14.8982 80.6158 15.2608 79.8823 15.341C79.1487 15.4213 78.4127 15.2129 77.8302 14.7599C76.8666 14.0029 75.7438 13.4744 74.5463 13.2141C73.3488 12.9539 72.1079 12.9687 70.917 13.2575C69.7261 13.5464 68.6163 14.1016 67.6711 14.8815C66.7259 15.6614 65.9699 16.6456 65.4602 17.7599C65.2988 18.1138 65.0674 18.4313 64.78 18.6933C64.4926 18.9553 64.1551 19.1564 63.7878 19.2844C63.4206 19.4125 63.0312 19.4648 62.6432 19.4382C62.2552 19.4117 61.8766 19.3068 61.5302 19.1299C60.423 18.5837 59.2058 18.2972 57.9713 18.2921C56.7367 18.2869 55.5172 18.5634 54.4055 19.1004C53.2939 19.6375 52.3193 20.4209 51.5559 21.3912C50.7926 22.3615 50.2605 23.4931 50.0002 24.6999C49.9325 25.0914 49.7846 25.4647 49.5657 25.7962C49.3468 26.1277 49.0617 26.4104 48.7282 26.6264C48.3948 26.8424 48.0203 26.9871 47.6283 27.0514C47.2362 27.1157 46.8351 27.0982 46.4502 26.9999C45.2371 26.7086 43.9731 26.701 42.7567 26.9779C41.5402 27.2547 40.404 27.8084 39.4364 28.596C38.4689 29.3836 37.696 30.3838 37.1781 31.5188C36.6602 32.6538 36.4111 33.893 36.4502 35.1399C36.465 35.5286 36.4012 35.9163 36.2626 36.2797C36.124 36.6431 35.9135 36.9749 35.6436 37.255C35.3738 37.5351 35.0501 37.7579 34.6921 37.9099C34.3341 38.062 33.9491 38.1402 33.5602 38.1399C32.3117 38.135 31.0789 38.4184 29.9579 38.9681C28.8368 39.5177 27.8579 40.3187 27.0972 41.3088C26.3365 42.2988 25.8147 43.4511 25.5724 44.6759C25.3301 45.9007 25.3738 47.1648 25.7002 48.3699C25.8047 48.745 25.8321 49.1374 25.7806 49.5234C25.7292 49.9094 25.6 50.2809 25.4009 50.6155C25.2018 50.9502 24.9369 51.2409 24.6223 51.4703C24.3076 51.6997 23.9497 51.8628 23.5702 51.9499C22.3545 52.234 21.2209 52.7949 20.2575 53.589C19.2942 54.383 18.5272 55.3887 18.0162 56.5277C17.5052 57.6668 17.2641 58.9084 17.3116 60.1559C17.3591 61.4034 17.694 62.6231 18.2902 63.7199C18.4828 64.0615 18.6036 64.4387 18.6452 64.8286C18.6868 65.2185 18.6484 65.6127 18.5323 65.9872C18.4162 66.3617 18.2249 66.7086 17.97 67.0065C17.7152 67.3045 17.4022 67.5472 17.0502 67.7199C15.9346 68.2786 14.9628 69.0867 14.2102 70.0817C13.4575 71.0766 12.9442 72.2317 12.7101 73.4571C12.4761 74.6825 12.5275 75.9454 12.8605 77.1478C13.1935 78.3501 13.7991 79.4595 14.6302 80.3899C14.8923 80.6779 15.0936 81.0159 15.2219 81.3836C15.3502 81.7512 15.4028 82.1411 15.3767 82.5296C15.3505 82.9182 15.2461 83.2974 15.0697 83.6446C14.8933 83.9918 14.6486 84.2997 14.3502 84.5499C13.393 85.3509 12.6334 86.3618 12.1303 87.504C11.6272 88.6462 11.3942 89.889 11.4493 91.1358C11.5045 92.3827 11.8463 93.6001 12.4482 94.6934C13.0502 95.7867 13.8961 96.7266 14.9202 97.4399C15.2405 97.6593 15.5131 97.9411 15.7218 98.2685C15.9304 98.5959 16.0707 98.962 16.1342 99.345C16.1977 99.728 16.1831 100.12 16.0914 100.497C15.9996 100.874 15.8325 101.229 15.6002 101.54C14.8519 102.54 14.3445 103.7 14.1176 104.929C13.8906 106.157 13.9503 107.422 14.2918 108.623C14.6334 109.825 15.2477 110.932 16.0869 111.858C16.9261 112.783 17.9675 113.503 19.1302 113.96C19.4932 114.098 19.8245 114.308 20.1038 114.578C20.3832 114.848 20.6048 115.172 20.7553 115.53C20.9059 115.888 20.9821 116.273 20.9795 116.662C20.9769 117.05 20.8955 117.434 20.7402 117.79C20.2547 118.93 20.0367 120.167 20.1028 121.404C20.169 122.642 20.5175 123.848 21.1218 124.93C21.726 126.012 22.5699 126.941 23.5889 127.647C24.6078 128.352 25.7747 128.815 27.0002 129C27.3865 129.052 27.7583 129.182 28.0932 129.381C28.4281 129.58 28.7192 129.845 28.949 130.16C29.1788 130.475 29.3426 130.833 29.4304 131.213C29.5183 131.593 29.5284 131.986 29.4602 132.37C29.2409 133.599 29.3084 134.863 29.6574 136.061C30.0065 137.26 30.6277 138.362 31.4726 139.282C32.3175 140.201 33.3633 140.913 34.5285 141.362C35.6937 141.811 36.9468 141.985 38.1902 141.87C38.5768 141.83 38.9675 141.869 39.3385 141.985C39.7096 142.101 40.0532 142.29 40.3487 142.543C40.6442 142.795 40.8853 143.105 41.0575 143.454C41.2296 143.802 41.3292 144.182 41.3502 144.57C41.4202 145.817 41.7773 147.031 42.3937 148.118C43.0102 149.204 43.8693 150.134 44.904 150.833C45.9387 151.533 47.1211 151.985 48.3589 152.152C49.5967 152.32 50.8566 152.199 52.0402 151.8C52.4081 151.672 52.7983 151.619 53.187 151.646C53.5758 151.673 53.9551 151.778 54.3019 151.956C54.6488 152.133 54.956 152.38 55.2049 152.679C55.4538 152.979 55.6393 153.326 55.7502 153.7C56.107 154.897 56.7354 155.995 57.5863 156.909C58.4372 157.823 59.4877 158.528 60.6558 158.969C61.824 159.411 63.0783 159.576 64.321 159.453C65.5637 159.33 66.7612 158.922 67.8202 158.26C68.1472 158.058 68.5112 157.924 68.8909 157.865C69.2706 157.806 69.6582 157.824 70.0309 157.917C70.4037 158.01 70.754 158.177 71.0613 158.408C71.3686 158.638 71.6266 158.928 71.8202 159.26C72.445 160.341 73.3106 161.263 74.3499 161.955C75.3891 162.647 76.5739 163.09 77.8122 163.25C79.0505 163.41 80.3089 163.281 81.4897 162.876C82.6704 162.47 83.7417 161.797 84.6202 160.91C84.889 160.629 85.2119 160.406 85.5694 160.253C85.9268 160.101 86.3115 160.022 86.7002 160.022C87.0889 160.022 87.4735 160.101 87.831 160.253C88.1885 160.406 88.5113 160.629 88.7802 160.91C89.6377 161.816 90.6926 162.513 91.863 162.946C93.0334 163.379 94.2878 163.536 95.5288 163.405C96.7698 163.275 97.964 162.86 99.0186 162.193C100.073 161.526 100.96 160.625 101.61 159.56C101.809 159.225 102.074 158.935 102.389 158.706C102.704 158.477 103.062 158.314 103.441 158.227C103.821 158.14 104.214 158.131 104.597 158.2C104.98 158.269 105.345 158.416 105.67 158.63C106.714 159.316 107.901 159.752 109.141 159.904C110.38 160.056 111.638 159.92 112.816 159.507C113.994 159.094 115.062 158.415 115.935 157.522C116.808 156.629 117.463 155.547 117.85 154.36C117.967 153.989 118.158 153.646 118.411 153.351C118.664 153.057 118.974 152.816 119.323 152.644C119.671 152.472 120.051 152.372 120.439 152.351C120.827 152.33 121.215 152.387 121.58 152.52C122.756 152.946 124.014 153.094 125.257 152.954C126.5 152.813 127.693 152.388 128.744 151.71C129.795 151.033 130.676 150.122 131.317 149.048C131.958 147.974 132.342 146.767 132.44 145.52C132.47 145.133 132.578 144.755 132.757 144.41C132.935 144.065 133.182 143.76 133.482 143.513C133.781 143.265 134.128 143.081 134.501 142.97C134.873 142.86 135.264 142.826 135.65 142.87C136.891 143.016 138.148 142.873 139.324 142.452C140.5 142.032 141.563 141.345 142.43 140.445C143.296 139.546 143.943 138.458 144.32 137.267C144.696 136.076 144.792 134.814 144.6 133.58C144.538 133.196 144.555 132.803 144.648 132.426C144.742 132.049 144.911 131.694 145.146 131.384C145.381 131.074 145.675 130.814 146.013 130.621C146.351 130.428 146.724 130.305 147.11 130.26C148.351 130.116 149.541 129.688 150.589 129.007C151.636 128.327 152.512 127.414 153.148 126.34C153.785 125.265 154.164 124.058 154.256 122.812C154.348 121.567 154.151 120.317 153.68 119.16C153.529 118.8 153.453 118.414 153.456 118.024C153.459 117.635 153.541 117.249 153.697 116.892C153.853 116.535 154.08 116.213 154.364 115.947C154.649 115.68 154.984 115.473 155.35 115.34C156.525 114.914 157.584 114.222 158.447 113.318C159.31 112.414 159.951 111.323 160.322 110.13C160.693 108.937 160.783 107.675 160.585 106.441C160.387 105.208 159.906 104.037 159.18 103.02C158.966 102.703 158.817 102.347 158.742 101.973C158.668 101.598 158.668 101.212 158.745 100.837C158.821 100.463 158.972 100.108 159.187 99.7921C159.403 99.4765 159.679 99.2072 160 98.9999C161.043 98.3116 161.912 97.392 162.541 96.3128C163.17 95.2336 163.541 94.0239 163.627 92.7776C163.712 91.5314 163.508 90.2824 163.032 89.1277C162.556 87.9729 161.819 86.9437 160.88 86.1199" fill="#F7931E"/>
<path d="M154.87 86.1999C154.6 85.9664 154.379 85.6806 154.222 85.3597C154.065 85.0388 153.974 84.6894 153.956 84.3325C153.937 83.9757 153.99 83.6188 154.113 83.2832C154.236 82.9476 154.426 82.6404 154.67 82.3799C155.454 81.5448 156.035 80.5402 156.367 79.4442C156.7 78.3481 156.775 77.1902 156.588 76.0603C156.4 74.9304 155.954 73.8589 155.285 72.9293C154.616 71.9996 153.742 71.2367 152.73 70.6999C152.409 70.5356 152.124 70.3075 151.894 70.0294C151.664 69.7513 151.493 69.4292 151.392 69.0828C151.291 68.7363 151.262 68.3729 151.306 68.0147C151.351 67.6565 151.468 67.3112 151.65 66.9999C152.223 66.0063 152.558 64.8938 152.63 63.7492C152.701 62.6046 152.507 61.459 152.063 60.4017C151.619 59.3445 150.936 58.4043 150.068 57.6546C149.2 56.9049 148.171 56.366 147.06 56.0799C146.714 55.9935 146.388 55.8377 146.104 55.6219C145.819 55.4061 145.581 55.1348 145.405 54.8244C145.228 54.514 145.116 54.171 145.076 53.8162C145.035 53.4613 145.068 53.102 145.17 52.7599C145.495 51.6597 145.561 50.4995 145.365 49.3695C145.168 48.2394 144.714 47.1699 144.036 46.2441C143.359 45.3183 142.478 44.5611 141.46 44.0314C140.443 43.5017 139.317 43.2137 138.17 43.1899C137.813 43.1864 137.46 43.1105 137.133 42.9667C136.806 42.823 136.512 42.6144 136.268 42.3535C136.024 42.0927 135.835 41.7851 135.714 41.4493C135.592 41.1135 135.54 40.7565 135.56 40.3999C135.62 39.2571 135.417 38.1157 134.965 37.0641C134.514 36.0125 133.827 35.0788 132.957 34.3354C132.087 33.592 131.057 33.0587 129.948 32.7768C128.839 32.495 127.68 32.472 126.56 32.7099C126.211 32.7884 125.849 32.7953 125.497 32.7303C125.145 32.6653 124.81 32.5296 124.512 32.3315C124.214 32.1333 123.959 31.8769 123.763 31.5776C123.567 31.2782 123.433 30.9423 123.37 30.5899C123.168 29.4613 122.709 28.3946 122.027 27.4731C121.345 26.5516 120.459 25.8001 119.439 25.2773C118.418 24.7546 117.291 24.4747 116.145 24.4595C114.998 24.4444 113.864 24.6943 112.83 25.1899C112.509 25.3461 112.16 25.4356 111.803 25.4529C111.447 25.4702 111.09 25.4151 110.756 25.2908C110.421 25.1664 110.115 24.9755 109.856 24.7296C109.598 24.4837 109.391 24.1878 109.25 23.8599C108.79 22.81 108.095 21.8801 107.218 21.1425C106.34 20.4048 105.305 19.8792 104.192 19.6065C103.079 19.3337 101.917 19.3212 100.799 19.5698C99.6797 19.8183 98.6332 20.3214 97.7402 21.0399C97.4635 21.2666 97.1439 21.4349 96.8005 21.5348C96.4571 21.6347 96.097 21.664 95.742 21.621C95.3869 21.5781 95.0442 21.4637 94.7346 21.2847C94.4249 21.1058 94.1547 20.866 93.9402 20.5799C93.2654 19.6828 92.3967 18.9497 91.3988 18.4355C90.401 17.9213 89.2998 17.6392 88.1776 17.6104C87.0555 17.5815 85.9413 17.8066 84.9183 18.2689C83.8954 18.7312 82.9901 19.4186 82.2702 20.2799C81.8397 20.8045 81.2211 21.14 80.5466 21.2148C79.8721 21.2895 79.1951 21.0975 78.6602 20.6799C77.7782 19.9854 76.7506 19.4995 75.6543 19.2586C74.5579 19.0176 73.4213 19.0279 72.3294 19.2886C71.2376 19.5493 70.2189 20.0536 69.3497 20.7639C68.4804 21.4742 67.7832 22.3719 67.3102 23.3899C67.1625 23.7155 66.9505 24.0079 66.6868 24.2494C66.4232 24.4909 66.1134 24.6766 65.7762 24.7952C65.4389 24.9139 65.0811 24.9631 64.7243 24.9398C64.3675 24.9165 64.0192 24.8213 63.7002 24.6599C62.6745 24.1352 61.5411 23.8555 60.3891 23.8429C59.2371 23.8302 58.0979 24.0849 57.0609 24.5868C56.024 25.0888 55.1176 25.8245 54.413 26.736C53.7084 27.6475 53.2248 28.7099 53.0002 29.8399C52.9306 30.1901 52.791 30.5226 52.5898 30.8174C52.3885 31.1123 52.1298 31.3635 51.829 31.5559C51.5283 31.7483 51.1918 31.8779 50.8397 31.937C50.4876 31.9962 50.1272 31.9835 49.7802 31.8999C48.6653 31.6315 47.5036 31.6241 46.3854 31.8782C45.2673 32.1323 44.2228 32.6411 43.3335 33.3649C42.4442 34.0888 41.7339 35.0082 41.2581 36.0514C40.7823 37.0947 40.5537 38.2338 40.5902 39.3799C40.6035 39.7312 40.5468 40.0817 40.4234 40.4109C40.2999 40.7401 40.1122 41.0415 39.8712 41.2974C39.6301 41.5533 39.3406 41.7588 39.0193 41.9017C38.6981 42.0446 38.3517 42.1222 38.0002 42.1299C36.8543 42.1252 35.7228 42.3854 34.694 42.8899C33.6652 43.3945 32.7668 44.1299 32.069 45.0387C31.3711 45.9476 30.8926 47.0054 30.6708 48.1296C30.449 49.2538 30.4898 50.4141 30.7902 51.5199C30.8873 51.8641 30.9135 52.2245 30.8671 52.5791C30.8207 52.9337 30.7028 53.2752 30.5204 53.5829C30.3381 53.8906 30.0951 54.158 29.8063 54.3689C29.5174 54.5798 29.1887 54.7299 28.8402 54.8099C27.7258 55.074 26.6871 55.5912 25.8048 56.3214C24.9224 57.0515 24.22 57.975 23.752 59.0203C23.284 60.0656 23.063 61.2046 23.106 62.349C23.149 63.4935 23.455 64.6127 24.0002 65.6199C24.1724 65.9328 24.2796 66.2773 24.3154 66.6326C24.3511 66.988 24.3146 67.347 24.2082 67.6879C24.1017 68.0288 23.9274 68.3447 23.6957 68.6166C23.4641 68.8884 23.1799 69.1106 22.8602 69.2699C21.8341 69.7819 20.94 70.5239 20.2477 71.438C19.5553 72.3522 19.0834 73.4138 18.8685 74.5403C18.6537 75.6667 18.7018 76.8276 19.0091 77.9324C19.3164 79.0372 19.8746 80.0561 20.6402 80.9099C20.881 81.1734 21.0658 81.483 21.1836 81.82C21.3013 82.157 21.3495 82.5144 21.3252 82.8705C21.3009 83.2266 21.2046 83.5741 21.0422 83.892C20.8797 84.2099 20.6545 84.4915 20.3802 84.7199C19.4992 85.4544 18.7998 86.3824 18.3364 87.4316C17.8729 88.4808 17.658 89.6228 17.7083 90.7686C17.7587 91.9145 18.0729 93.0333 18.6265 94.0378C19.1801 95.0423 19.9582 95.9054 20.9002 96.5599C21.196 96.7604 21.448 97.0189 21.6409 97.3198C21.8339 97.6206 21.9638 97.9574 22.0227 98.3099C22.0816 98.6624 22.0683 99.0232 21.9836 99.3704C21.899 99.7176 21.7447 100.044 21.5302 100.33C20.8426 101.247 20.3763 102.311 20.1677 103.438C19.959 104.565 20.0136 105.725 20.3273 106.828C20.6409 107.93 21.2051 108.946 21.9758 109.794C22.7464 110.643 23.7028 111.302 24.7702 111.72C25.1036 111.847 25.4079 112.041 25.6645 112.289C25.9211 112.537 26.1247 112.834 26.263 113.163C26.4014 113.492 26.4715 113.846 26.4693 114.203C26.4671 114.56 26.3926 114.913 26.2502 115.24C25.7942 116.289 25.586 117.43 25.6418 118.572C25.6976 119.715 26.0159 120.83 26.572 121.83C27.128 122.83 27.9069 123.688 28.8483 124.338C29.7896 124.989 30.8681 125.414 32.0002 125.58C32.3539 125.628 32.6941 125.748 33.0006 125.931C33.307 126.114 33.5733 126.357 33.7834 126.646C33.9936 126.934 34.1432 127.262 34.2234 127.61C34.3036 127.958 34.3127 128.318 34.2502 128.67C34.0505 129.797 34.1132 130.955 34.4333 132.054C34.7535 133.152 35.3225 134.163 36.0962 135.006C36.8699 135.849 37.8276 136.503 38.8948 136.917C39.9621 137.33 41.1102 137.492 42.2502 137.39C42.6055 137.356 42.9641 137.394 43.3044 137.501C43.6447 137.609 43.9598 137.785 44.2306 138.017C44.5014 138.25 44.7225 138.535 44.8805 138.855C45.0385 139.175 45.1303 139.523 45.1502 139.88C45.2128 141.029 45.5411 142.148 46.1093 143.148C46.6775 144.149 47.4701 145.004 48.4247 145.647C49.3793 146.289 50.47 146.702 51.611 146.852C52.7519 147.001 53.9121 146.884 55.0002 146.51C55.3373 146.394 55.6944 146.348 56.05 146.374C56.4056 146.4 56.7522 146.497 57.069 146.661C57.3857 146.824 57.6661 147.05 57.8932 147.325C58.1203 147.6 58.2893 147.918 58.3902 148.26C58.7177 149.36 59.2949 150.369 60.0767 151.209C60.8584 152.049 61.8237 152.697 62.8971 153.102C63.9705 153.508 65.1231 153.66 66.265 153.547C67.4069 153.434 68.5072 153.058 69.4802 152.45C69.7811 152.258 70.118 152.129 70.4703 152.07C70.8226 152.012 71.1831 152.026 71.5299 152.111C71.8767 152.196 72.2027 152.351 72.488 152.565C72.7734 152.78 73.0123 153.05 73.1902 153.36C73.7613 154.355 74.5547 155.204 75.5084 155.842C76.4622 156.479 77.5504 156.887 78.6881 157.034C79.8258 157.182 80.9821 157.064 82.0667 156.69C83.1512 156.316 84.1347 155.697 84.9402 154.88C85.1867 154.622 85.4831 154.416 85.8114 154.275C86.1397 154.135 86.4931 154.062 86.8502 154.062C87.2073 154.062 87.5607 154.135 87.889 154.275C88.2173 154.416 88.5136 154.622 88.7602 154.88C89.547 155.713 90.5155 156.354 91.5903 156.752C92.665 157.15 93.8171 157.294 94.9569 157.174C96.0967 157.054 97.1935 156.673 98.1618 156.06C99.1302 155.447 99.9441 154.619 100.54 153.64C100.724 153.333 100.968 153.067 101.257 152.858C101.547 152.648 101.875 152.499 102.224 152.419C102.572 152.34 102.933 152.332 103.285 152.395C103.637 152.459 103.972 152.593 104.27 152.79C105.227 153.422 106.318 153.824 107.456 153.965C108.594 154.106 109.75 153.982 110.832 153.603C111.915 153.223 112.895 152.599 113.696 151.778C114.497 150.957 115.097 149.961 115.45 148.87C115.557 148.529 115.732 148.213 115.964 147.941C116.197 147.669 116.482 147.448 116.803 147.29C117.124 147.132 117.473 147.041 117.83 147.022C118.187 147.003 118.545 147.057 118.88 147.18C119.959 147.575 121.115 147.715 122.258 147.59C123.4 147.465 124.498 147.077 125.466 146.458C126.434 145.838 127.246 145.004 127.838 144.019C128.43 143.034 128.787 141.925 128.88 140.78C128.906 140.424 129.004 140.077 129.167 139.76C129.33 139.443 129.556 139.162 129.831 138.934C130.105 138.706 130.423 138.536 130.765 138.434C131.107 138.332 131.466 138.3 131.82 138.34C132.96 138.473 134.114 138.342 135.195 137.956C136.275 137.569 137.251 136.939 138.048 136.113C138.844 135.288 139.439 134.289 139.787 133.196C140.134 132.103 140.224 130.944 140.05 129.81C140 129.461 140.019 129.106 140.108 128.765C140.197 128.424 140.353 128.105 140.568 127.825C140.782 127.545 141.05 127.312 141.356 127.137C141.662 126.963 142 126.852 142.35 126.81C143.486 126.673 144.575 126.276 145.532 125.649C146.489 125.023 147.289 124.184 147.87 123.198C148.45 122.213 148.796 121.106 148.879 119.965C148.962 118.824 148.781 117.68 148.35 116.62C148.212 116.29 148.143 115.935 148.147 115.578C148.15 115.22 148.226 114.867 148.37 114.54C148.514 114.213 148.723 113.918 148.984 113.674C149.246 113.43 149.554 113.241 149.89 113.12C150.966 112.724 151.936 112.086 152.726 111.255C153.515 110.424 154.103 109.422 154.442 108.327C154.782 107.232 154.864 106.074 154.684 104.942C154.503 103.81 154.064 102.735 153.4 101.8C153.19 101.511 153.041 101.182 152.962 100.833C152.883 100.485 152.875 100.124 152.94 99.7721C153.004 99.4205 153.139 99.0857 153.337 98.7879C153.535 98.4902 153.791 98.2357 154.09 98.0399C155.046 97.4078 155.844 96.5635 156.421 95.5728C156.998 94.5821 157.338 93.4716 157.415 92.3279C157.493 91.1841 157.305 90.0379 156.867 88.9785C156.429 87.9191 155.753 86.9751 154.89 86.2199" fill="white"/>
<path d="M146.191 88.7001C146.189 100.292 142.75 111.622 136.308 121.259C129.867 130.896 120.713 138.407 110.003 142.842C99.2931 147.276 87.5089 148.435 76.1404 146.173C64.7718 143.91 54.3294 138.327 46.1337 130.13C37.9379 121.933 32.3568 111.49 30.0962 100.121C27.8355 88.7517 28.9968 76.9677 33.4331 66.2587C37.8695 55.5497 45.3816 46.3967 55.0198 39.9569C64.6579 33.5172 75.9892 30.0801 87.5807 30.0801C95.2783 30.0801 102.901 31.5964 110.012 34.5425C117.124 37.4885 123.585 41.8066 129.028 47.2501C134.47 52.6936 138.787 59.1559 141.732 66.2679C144.677 73.38 146.192 81.0025 146.191 88.7001Z" fill="#FEAF18"/>
<g opacity="0.22">
<mask id="mask0_693_443" style="mask-type:luminance" maskUnits="userSpaceOnUse" x="1" y="0" width="153" height="93">
<path d="M153.98 0H1.73047V92.33H153.98V0Z" fill="white"/>
</mask>
<g mask="url(#mask0_693_443)">
<path d="M154 32.6201C153.038 32.2677 152.025 32.0751 151 32.0501C150.553 32.0454 150.111 31.95 149.701 31.7695C149.291 31.589 148.922 31.3272 148.616 31C148.311 30.6728 148.075 30.287 147.922 29.8659C147.77 29.4448 147.705 28.9971 147.73 28.5501C147.809 27.1173 147.556 25.6857 146.99 24.3668C146.425 23.0478 145.564 21.8769 144.472 20.9452C143.381 20.0135 142.089 19.3461 140.698 18.9949C139.307 18.6436 137.853 18.6181 136.45 18.9201C136.013 19.0205 135.56 19.0309 135.118 18.9507C134.677 18.8704 134.256 18.7012 133.882 18.4534C133.508 18.2055 133.188 17.8841 132.942 17.5088C132.696 17.1335 132.529 16.712 132.45 16.2701C132.198 14.8533 131.621 13.5142 130.765 12.3574C129.909 11.2006 128.797 10.2576 127.515 9.60201C126.234 8.94643 124.819 8.59611 123.38 8.57843C121.941 8.56075 120.517 8.8762 119.22 9.5001C118.818 9.6964 118.381 9.80915 117.934 9.83152C117.487 9.8539 117.04 9.78544 116.62 9.63028C116.201 9.47512 115.817 9.23649 115.492 8.9288C115.167 8.62111 114.908 8.25075 114.73 7.8401C114.156 6.52433 113.286 5.35879 112.188 4.43419C111.09 3.50959 109.793 2.85087 108.399 2.5093C107.005 2.16773 105.55 2.15253 104.149 2.46487C102.748 2.7772 101.438 3.40867 100.32 4.3101C99.9737 4.59379 99.5731 4.80436 99.1428 4.92913C98.7125 5.0539 98.2614 5.09028 97.8167 5.03609C97.3719 4.9819 96.9428 4.83826 96.555 4.61381C96.1673 4.38936 95.829 4.08876 95.5605 3.7301C94.7159 2.6054 93.6279 1.68621 92.3779 1.04128C91.128 0.396355 89.7484 0.0423817 88.3423 0.00583585C86.9363 -0.03071 85.5401 0.251117 84.2584 0.83024C82.9766 1.40936 81.8424 2.27079 80.9405 3.3501C80.4007 4.00583 79.6262 4.42499 78.782 4.51837C77.9379 4.61175 77.0905 4.37199 76.4205 3.8501C75.316 2.97805 74.0283 2.36771 72.654 2.06496C71.2797 1.76221 69.8547 1.77494 68.4861 2.10218C67.1174 2.42942 65.8408 3.06267 64.7521 3.95431C63.6634 4.84595 62.791 5.97278 62.2005 7.2501C62.0155 7.65769 61.7499 8.02353 61.4195 8.32551C61.0891 8.6275 60.701 8.85934 60.2785 9.00703C59.856 9.15473 59.4079 9.21519 58.9613 9.18478C58.5148 9.15437 58.0791 9.03371 57.6805 8.8301C56.3991 8.17894 54.9846 7.83263 53.5473 7.81821C52.11 7.80378 50.6888 8.12163 49.3946 8.74695C48.1005 9.37227 46.9682 10.2881 46.0863 11.4231C45.2044 12.5581 44.5967 13.8815 44.3105 15.2901C44.2242 15.7258 44.0511 16.1396 43.8015 16.507C43.5519 16.8744 43.2309 17.1878 42.8577 17.4285C42.4844 17.6692 42.0666 17.8324 41.629 17.9083C41.1914 17.9841 40.743 17.9712 40.3105 17.8701C38.9149 17.534 37.4606 17.5245 36.0607 17.8422C34.6609 18.16 33.3532 18.7964 32.2395 19.7021C31.1258 20.6078 30.2361 21.7582 29.6396 23.0639C29.0431 24.3696 28.756 25.7953 28.8005 27.2301C28.818 27.6777 28.7448 28.1243 28.5852 28.5429C28.4256 28.9615 28.1829 29.3435 27.8718 29.6658C27.5607 29.9881 27.1875 30.2442 26.7748 30.4185C26.3622 30.5928 25.9185 30.6818 25.4705 30.6801C24.0369 30.6789 22.6224 31.0084 21.337 31.643C20.0516 32.2776 18.9299 33.2001 18.0591 34.3389C17.1883 35.4777 16.592 36.802 16.3165 38.2088C16.0409 39.6156 16.0936 41.067 16.4705 42.4501C16.5897 42.883 16.6198 43.3357 16.5591 43.7806C16.4984 44.2255 16.348 44.6535 16.1171 45.0387C15.8862 45.4238 15.5796 45.7581 15.2158 46.0213C14.8519 46.2846 14.4385 46.4712 14.0005 46.5701C12.6 46.8944 11.2933 47.5375 10.1821 48.4494C9.0709 49.3613 8.18518 50.5174 7.59392 51.8277C7.00265 53.138 6.72181 54.567 6.77324 56.0036C6.82468 57.4402 7.20701 58.8455 7.89047 60.1101C8.10717 60.5018 8.24219 60.9333 8.28734 61.3787C8.3325 61.824 8.28686 62.2738 8.15319 62.701C8.01952 63.1282 7.80059 63.5239 7.50964 63.864C7.21869 64.2042 6.86177 64.4818 6.46047 64.6801C5.33881 65.2388 4.34163 66.0184 3.52882 66.9722C2.716 67.9259 2.10431 69.0341 1.73047 70.2301C19.2143 84.5543 41.1281 92.3655 63.7305 92.3301C82.9761 92.334 101.797 86.6746 117.849 76.057C133.901 65.4393 146.474 50.3329 154 32.6201Z" fill="white"/>
</g>
</g>
<path d="M50.8003 89.77C50.7984 90.9998 50.4319 92.2014 49.7472 93.223C49.0626 94.2445 48.0904 95.0402 46.9537 95.5094C45.817 95.9787 44.5667 96.1004 43.3608 95.8593C42.1549 95.6182 41.0475 95.025 40.1786 94.1547C39.3097 93.2844 38.7183 92.1761 38.4791 90.9698C38.24 89.7635 38.3637 88.5134 38.8348 87.3774C39.3058 86.2415 40.1031 85.2706 41.1257 84.5876C42.1484 83.9046 43.3506 83.54 44.5803 83.54C45.3984 83.5387 46.2086 83.699 46.9645 84.0118C47.7204 84.3245 48.4071 84.7835 48.985 85.3624C49.563 85.9413 50.0209 86.6287 50.3324 87.3851C50.644 88.1415 50.803 88.952 50.8003 89.77Z" fill="#F7931E"/>
<path d="M137.94 89.77C137.938 90.9998 137.572 92.2014 136.887 93.223C136.202 94.2445 135.23 95.0402 134.093 95.5094C132.957 95.9787 131.706 96.1004 130.5 95.8593C129.295 95.6182 128.187 95.025 127.318 94.1547C126.449 93.2844 125.858 92.1761 125.619 90.9698C125.38 89.7635 125.503 88.5134 125.974 87.3774C126.445 86.2415 127.243 85.2706 128.265 84.5876C129.288 83.9046 130.49 83.54 131.72 83.54C132.538 83.5387 133.348 83.699 134.104 84.0118C134.86 84.3245 135.547 84.7835 136.125 85.3624C136.703 85.9413 137.161 86.6287 137.472 87.3851C137.784 88.1415 137.943 88.952 137.94 89.77Z" fill="#F7931E"/>
<path d="M100.035 117.008H84.7151V70.6781H74.2057V57.2822H100.035V117.008Z" fill="#F7931E"/>
<path d="M97.7451 118.108H82.425V71.7782H71.9156V58.3823H97.7451V118.108Z" fill="white"/>
</svg>
