<svg xmlns="http://www.w3.org/2000/svg" xmlns:xlink="http://www.w3.org/1999/xlink" viewBox="0 0 175.09 217.89"><defs><style>.cls-1{fill:#fff;}.cls-2{opacity:0.3;}.cls-3{fill:#636363;}.cls-4{fill:#b6b6b6;}.cls-5{fill:#a4a4a4;}.cls-6{opacity:0.22;}.cls-7{mask:url(#mask);}</style><mask id="mask" x="1.76" y="0" width="152.27" height="92.33" maskUnits="userSpaceOnUse"><g id="mask0_693_443" data-name="mask0 693 443"><path class="cls-1" d="M154,0H1.76V92.33H154Z"/></g></mask></defs><g id="Layer_2" data-name="Layer 2"><g id="Layer_1-2" data-name="Layer 1"><g class="cls-2"><path class="cls-3" d="M128.3,217.89,87.84,202.33,47.38,217.89V102.74H128.3Z"/><path class="cls-4" d="M171.91,85.89a3.19,3.19,0,0,1-.81-1,3.43,3.43,0,0,1-.34-1.29,3.25,3.25,0,0,1,.21-1.31,3.16,3.16,0,0,1,.7-1.13,9.31,9.31,0,0,0,2.4-7.93,9.24,9.24,0,0,0-1.63-3.92,9.36,9.36,0,0,0-3.21-2.79,3.32,3.32,0,0,1-1.66-2,3.31,3.31,0,0,1-.11-1.33,3.19,3.19,0,0,1,.42-1.26,9.33,9.33,0,0,0-2-11.71,9.26,9.26,0,0,0-3.76-2,3.23,3.23,0,0,1-1.21-.58,3.41,3.41,0,0,1-.89-1,3.25,3.25,0,0,1-.4-1.28,3.15,3.15,0,0,1,.13-1.33A9.33,9.33,0,0,0,151,32a3.41,3.41,0,0,1-1.3-.28,3.26,3.26,0,0,1-1.78-1.91,3.24,3.24,0,0,1-.19-1.31,9.41,9.41,0,0,0-.74-4.19,9.55,9.55,0,0,0-2.52-3.42,9.32,9.32,0,0,0-8-2,3.36,3.36,0,0,1-1.34,0,3.35,3.35,0,0,1-2.17-1.44,3.16,3.16,0,0,1-.49-1.24,9.31,9.31,0,0,0-1.7-3.89,9.49,9.49,0,0,0-3.24-2.73,9.36,9.36,0,0,0-8.26-.1,3.33,3.33,0,0,1-2.6.13,3.46,3.46,0,0,1-1.13-.7,3.16,3.16,0,0,1-.76-1.09,9.42,9.42,0,0,0-2.55-3.41,9.31,9.31,0,0,0-11.86-.12,3.52,3.52,0,0,1-1.18.62,3.31,3.31,0,0,1-1.33.1,3.19,3.19,0,0,1-1.26-.42,3.21,3.21,0,0,1-1-.88A9.38,9.38,0,0,0,88.37,0a9.43,9.43,0,0,0-4.09.83A9.33,9.33,0,0,0,81,3.36a3.3,3.3,0,0,1-2.16,1.16,3.27,3.27,0,0,1-2.36-.67,9.52,9.52,0,0,0-3.77-1.79A9.3,9.3,0,0,0,62.23,7.25a3.32,3.32,0,0,1-.78,1.07A3.21,3.21,0,0,1,60.3,9,3.43,3.43,0,0,1,59,9.18a3.35,3.35,0,0,1-1.28-.35,9.32,9.32,0,0,0-13.37,6.46,3.45,3.45,0,0,1-.51,1.22,3.33,3.33,0,0,1-.95.92,3.39,3.39,0,0,1-1.22.48,3.45,3.45,0,0,1-1.32,0,9.33,9.33,0,0,0-11.51,9.36,3.44,3.44,0,0,1-.22,1.31,3.29,3.29,0,0,1-.71,1.12,3.34,3.34,0,0,1-1.1.76,3.43,3.43,0,0,1-1.3.26,9.22,9.22,0,0,0-4.13,1,9.35,9.35,0,0,0-5,6.56,9.21,9.21,0,0,0,.15,4.24A3.33,3.33,0,0,1,16.15,45a3.27,3.27,0,0,1-.91,1,3.33,3.33,0,0,1-1.21.55A9.33,9.33,0,0,0,7.92,60.11a3.37,3.37,0,0,1,.26,2.59,3.22,3.22,0,0,1-.64,1.16,3.47,3.47,0,0,1-1,.82,9.36,9.36,0,0,0-3.28,2.71,9.32,9.32,0,0,0,.5,11.87,3.49,3.49,0,0,1,.67,1.13,3.43,3.43,0,0,1,.17,1.31A3.35,3.35,0,0,1,4.2,83a3.39,3.39,0,0,1-.82,1A9.31,9.31,0,0,0,4,98.86a3.21,3.21,0,0,1,.92,1,3.3,3.3,0,0,1,.48,1.24,3.51,3.51,0,0,1,0,1.33,3.4,3.4,0,0,1-.57,1.2,9.26,9.26,0,0,0-1.5,8.14,9.34,9.34,0,0,0,5.56,6.13,3.29,3.29,0,0,1,1.12.71,3.42,3.42,0,0,1,.75,1.1A3.28,3.28,0,0,1,11,121a3.22,3.22,0,0,1-.27,1.3,9.35,9.35,0,0,0,7.25,13,3.44,3.44,0,0,1,1.25.43,3.25,3.25,0,0,1,1,.9,3.19,3.19,0,0,1,.56,1.21,3.31,3.31,0,0,1,0,1.33A9.34,9.34,0,0,0,30.85,150a3.13,3.13,0,0,1,1.32.14,3.31,3.31,0,0,1,1.16.64,3.25,3.25,0,0,1,.82,1.05,3.52,3.52,0,0,1,.34,1.28,9.24,9.24,0,0,0,1.2,4.07,9.35,9.35,0,0,0,6.85,4.65,9.51,9.51,0,0,0,4.24-.4,3.08,3.08,0,0,1,1.31-.17,3.19,3.19,0,0,1,1.28.36,3.07,3.07,0,0,1,1,.83,3.24,3.24,0,0,1,.63,1.17,9.33,9.33,0,0,0,13.88,5.25,3.24,3.24,0,0,1,1.24-.48,3.31,3.31,0,0,1,1.33,0A3.36,3.36,0,0,1,69.57,170a9.28,9.28,0,0,0,2.91,3.1,9.18,9.18,0,0,0,4,1.49,9.36,9.36,0,0,0,4.23-.44,9.24,9.24,0,0,0,3.6-2.26,3.3,3.3,0,0,1,3.7-.72,3.33,3.33,0,0,1,1.09.77,9.33,9.33,0,0,0,11.78,1.47,9.48,9.48,0,0,0,3-3,3.22,3.22,0,0,1,.89-1,3.29,3.29,0,0,1,3.77-.08,9.35,9.35,0,0,0,4,1.46,9.35,9.35,0,0,0,10-6.38,3.22,3.22,0,0,1,.64-1.16,3.25,3.25,0,0,1,2.33-1.15,3.29,3.29,0,0,1,1.32.2,9.34,9.34,0,0,0,12.49-8,3.38,3.38,0,0,1,.37-1.27,3.33,3.33,0,0,1,3.32-1.73,9.35,9.35,0,0,0,10.3-10.68,3.14,3.14,0,0,1,0-1.33,3.4,3.4,0,0,1,.57-1.2,3.24,3.24,0,0,1,1-.88,3.08,3.08,0,0,1,1.26-.42A9.33,9.33,0,0,0,163.72,124a3.26,3.26,0,0,1-.26-1.31,3.45,3.45,0,0,1,.28-1.3,3.29,3.29,0,0,1,.77-1.08,3.42,3.42,0,0,1,1.14-.69,9.33,9.33,0,0,0,6-10.28A9.32,9.32,0,0,0,170,105.4a3.24,3.24,0,0,1-.55-1.21,3.31,3.31,0,0,1,0-1.33,3.52,3.52,0,0,1,.5-1.24,3.24,3.24,0,0,1,1-.93,9.32,9.32,0,0,0,1-14.8"/><path class="cls-5" d="M160.91,86.09a2.84,2.84,0,0,1-.71-.91,2.79,2.79,0,0,1-.3-1.12,2.83,2.83,0,0,1,.18-1.15,2.79,2.79,0,0,1,.61-1,8.1,8.1,0,0,0-2.12-12.72,2.89,2.89,0,0,1-1.44-1.75,3,3,0,0,1-.1-1.15,2.87,2.87,0,0,1,.37-1.1,8.19,8.19,0,0,0,1.06-3.54,8.1,8.1,0,0,0-.62-3.64,8.12,8.12,0,0,0-5.44-4.71,3.08,3.08,0,0,1-1.05-.5,2.9,2.9,0,0,1-1.12-2,3,3,0,0,1,.11-1.15,8.22,8.22,0,0,0,.21-3.69,8.12,8.12,0,0,0-1.45-3.4,8.12,8.12,0,0,0-6.38-3.33A3,3,0,0,1,141.6,39a2.71,2.71,0,0,1-.94-.66,2.8,2.8,0,0,1-.78-2.1,8.23,8.23,0,0,0-.63-3.67,8.14,8.14,0,0,0-2.2-3,8.11,8.11,0,0,0-7-1.75,3,3,0,0,1-1.16,0,2.94,2.94,0,0,1-1.07-.43,3,3,0,0,1-.82-.82,2.92,2.92,0,0,1-.42-1.07,8.11,8.11,0,0,0-11.48-5.89A2.9,2.9,0,0,1,114,20a2.83,2.83,0,0,1-1.15-.18,2.91,2.91,0,0,1-1-.6,2.85,2.85,0,0,1-.66-.95,8.12,8.12,0,0,0-12.53-3.08,2.86,2.86,0,0,1-4.13-.5,8.21,8.21,0,0,0-2.77-2.34,8.1,8.1,0,0,0-9.95,2,2.84,2.84,0,0,1-3.93.43,8.07,8.07,0,0,0-6.92-1.5,8.08,8.08,0,0,0-5.45,4.5,2.87,2.87,0,0,1-1.68,1.52,2.92,2.92,0,0,1-1.14.16,2.83,2.83,0,0,1-1.11-.31A8.11,8.11,0,0,0,50,24.7a2.88,2.88,0,0,1-.44,1.09,2.66,2.66,0,0,1-.84.83,2.7,2.7,0,0,1-1.1.43A2.88,2.88,0,0,1,46.48,27a8.16,8.16,0,0,0-7,1.59,8.09,8.09,0,0,0-3,6.55,3,3,0,0,1-.19,1.14,2.92,2.92,0,0,1-.62,1,2.85,2.85,0,0,1-1,.66,2.93,2.93,0,0,1-1.13.23,8.1,8.1,0,0,0-7.86,10.23,3,3,0,0,1,.08,1.15,2.78,2.78,0,0,1-.38,1.09A2.88,2.88,0,0,1,23.6,52a8.1,8.1,0,0,0-6.26,8.2,8.12,8.12,0,0,0,1,3.57,2.89,2.89,0,0,1,.35,1.11A3,3,0,0,1,18.56,66,2.94,2.94,0,0,1,18,67a2.91,2.91,0,0,1-.92.72,8.13,8.13,0,0,0-4.19,9.43,8.1,8.1,0,0,0,1.77,3.24,2.93,2.93,0,0,1,.59,1,3,3,0,0,1-.15,2.26,3.05,3.05,0,0,1-.72.91,8.05,8.05,0,0,0-2.22,3,8,8,0,0,0-.68,3.63,8.05,8.05,0,0,0,1,3.56A8.27,8.27,0,0,0,15,97.44a2.88,2.88,0,0,1,.8.83,2.74,2.74,0,0,1,.41,1.07,3,3,0,0,1,0,1.16,2.92,2.92,0,0,1-.49,1A8.11,8.11,0,0,0,19.16,114a2.92,2.92,0,0,1,1,.62,2.82,2.82,0,0,1,.65,1,2.93,2.93,0,0,1,.23,1.13,3.13,3.13,0,0,1-.24,1.13,8,8,0,0,0-.64,3.61,8.13,8.13,0,0,0,3.49,6.25A8.18,8.18,0,0,0,27,129a2.89,2.89,0,0,1,2.43,2.21,3.23,3.23,0,0,1,0,1.16,8.11,8.11,0,0,0,5.06,9,8.2,8.2,0,0,0,3.67.51,2.94,2.94,0,0,1,1.14.11,3,3,0,0,1,1,.56,2.84,2.84,0,0,1,.7.91,2.75,2.75,0,0,1,.3,1.12,8.07,8.07,0,0,0,1,3.55,8.12,8.12,0,0,0,6,4,8.08,8.08,0,0,0,3.68-.35,2.92,2.92,0,0,1,1.14-.16,3.12,3.12,0,0,1,1.12.31,2.9,2.9,0,0,1,.9.73,2.81,2.81,0,0,1,.55,1,8.08,8.08,0,0,0,4.9,5.27,8.15,8.15,0,0,0,7.17-.71,2.89,2.89,0,0,1,1.07-.4,2.75,2.75,0,0,1,1.14.06,2.88,2.88,0,0,1,1,.49,3.1,3.1,0,0,1,.76.85,8.13,8.13,0,0,0,12.8,1.65,2.85,2.85,0,0,1,.95-.66,2.89,2.89,0,0,1,1.13-.23,2.86,2.86,0,0,1,2.08.89,8.13,8.13,0,0,0,12.83-1.35,2.79,2.79,0,0,1,.78-.86,2.85,2.85,0,0,1,1-.47,2.79,2.79,0,0,1,1.15,0,2.82,2.82,0,0,1,1.08.43,8.13,8.13,0,0,0,12.18-4.27,2.65,2.65,0,0,1,.56-1,2.87,2.87,0,0,1,.91-.71,2.9,2.9,0,0,1,1.12-.29,3,3,0,0,1,1.14.17,8.17,8.17,0,0,0,3.67.43,8,8,0,0,0,3.49-1.24,8.15,8.15,0,0,0,3.7-6.19,2.83,2.83,0,0,1,.31-1.11,2.9,2.9,0,0,1,.73-.9,2.9,2.9,0,0,1,2.17-.64,8.1,8.1,0,0,0,8.95-9.29,2.83,2.83,0,0,1,0-1.16,3.13,3.13,0,0,1,.5-1,2.9,2.9,0,0,1,2-1.12,8,8,0,0,0,6-3.92,8,8,0,0,0,1.11-3.53,8.15,8.15,0,0,0-.57-3.65,3,3,0,0,1-.23-1.14,3.13,3.13,0,0,1,.24-1.13,2.88,2.88,0,0,1,.67-.94,2.83,2.83,0,0,1,1-.61,8.17,8.17,0,0,0,3.09-2,8.08,8.08,0,0,0,2.14-6.88,8.22,8.22,0,0,0-1.4-3.42,2.88,2.88,0,0,1-.44-2.18,3,3,0,0,1,.44-1A2.94,2.94,0,0,1,160,99a8.17,8.17,0,0,0,2.54-2.69,8.13,8.13,0,0,0-1.66-10.19"/><path class="cls-1" d="M154.9,86.2a2.79,2.79,0,0,1-.65-.84,2.62,2.62,0,0,1-.27-1,2.69,2.69,0,0,1,.16-1,2.57,2.57,0,0,1,.56-.9,7.47,7.47,0,0,0,1.69-2.94,7.45,7.45,0,0,0-1.08-6.51,7.39,7.39,0,0,0-2.55-2.23,2.73,2.73,0,0,1-.84-.67,2.63,2.63,0,0,1-.5-1,2.76,2.76,0,0,1-.09-1.07,2.59,2.59,0,0,1,.35-1,7.63,7.63,0,0,0,1-3.25,7.53,7.53,0,0,0-.57-3.35,7.37,7.37,0,0,0-2-2.75,7.28,7.28,0,0,0-3-1.57,2.59,2.59,0,0,1-1-.46,2.83,2.83,0,0,1-.7-.8,2.56,2.56,0,0,1-.33-1,2.5,2.5,0,0,1,.1-1.05,7.46,7.46,0,0,0-7-9.57,2.67,2.67,0,0,1-1-.23,2.64,2.64,0,0,1-.87-.61,2.62,2.62,0,0,1-.7-2A7.44,7.44,0,0,0,130,32.78a7.28,7.28,0,0,0-3.38-.07,2.75,2.75,0,0,1-1.07,0,2.71,2.71,0,0,1-1-.4,2.68,2.68,0,0,1-.75-.75,2.57,2.57,0,0,1-.39-1,7.45,7.45,0,0,0-1.35-3.12,7.44,7.44,0,0,0-5.88-3,7.28,7.28,0,0,0-3.31.73,2.79,2.79,0,0,1-1,.26,2.69,2.69,0,0,1-1-.16,2.9,2.9,0,0,1-.9-.56,2.61,2.61,0,0,1-.6-.87A7.46,7.46,0,0,0,97.77,21a2.82,2.82,0,0,1-.94.49,2.73,2.73,0,0,1-1.06.09,2.57,2.57,0,0,1-1-.34,2.66,2.66,0,0,1-.79-.7,7.62,7.62,0,0,0-2.54-2.15,7.54,7.54,0,0,0-3.23-.82,7.36,7.36,0,0,0-3.26.66,7.43,7.43,0,0,0-2.64,2,2.59,2.59,0,0,1-1.73.93,2.55,2.55,0,0,1-1.88-.53,7.43,7.43,0,0,0-11.35,2.71,2.66,2.66,0,0,1-.63.86,2.62,2.62,0,0,1-.91.54,2.65,2.65,0,0,1-1,.15,2.77,2.77,0,0,1-1-.28A7.44,7.44,0,0,0,53,29.84a2.73,2.73,0,0,1-.41,1,2.78,2.78,0,0,1-.76.73,2.63,2.63,0,0,1-1,.39,2.89,2.89,0,0,1-1.06,0,7.48,7.48,0,0,0-6.45,1.46,7.6,7.6,0,0,0-2.08,2.69,7.46,7.46,0,0,0-.66,3.33,2.79,2.79,0,0,1-.17,1,2.61,2.61,0,0,1-1.4,1.49,2.8,2.8,0,0,1-1,.23,7.45,7.45,0,0,0-7.33,6,7.47,7.47,0,0,0,.12,3.39,2.69,2.69,0,0,1,.07,1.06,2.58,2.58,0,0,1-.34,1,2.72,2.72,0,0,1-.72.79,2.62,2.62,0,0,1-1,.44,7.38,7.38,0,0,0-3,1.51,7.44,7.44,0,0,0-1.8,9.3,2.58,2.58,0,0,1,.31,1,2.68,2.68,0,0,1-1.45,2.64A7.41,7.41,0,0,0,19,77.93a7.32,7.32,0,0,0,1.63,3,2.62,2.62,0,0,1,.54.91,2.5,2.5,0,0,1,.14,1.05,2.64,2.64,0,0,1-.28,1,2.66,2.66,0,0,1-.66.83,7.43,7.43,0,0,0-2.68,6A7.68,7.68,0,0,0,18.65,94a7.54,7.54,0,0,0,2.28,2.52,2.82,2.82,0,0,1,.74.76A2.64,2.64,0,0,1,22,99.37a2.64,2.64,0,0,1-.45,1,7.45,7.45,0,0,0-1.37,3.11,7.62,7.62,0,0,0,.16,3.39,7.53,7.53,0,0,0,1.65,3,7.45,7.45,0,0,0,2.8,1.93,2.71,2.71,0,0,1,.89.57,2.61,2.61,0,0,1,.6.87,2.65,2.65,0,0,1,.21,1,2.85,2.85,0,0,1-.22,1,7.46,7.46,0,0,0,2.59,9.1A7.54,7.54,0,0,0,32,125.58a2.65,2.65,0,0,1,1.78,1.06,2.67,2.67,0,0,1,.44,1,2.7,2.7,0,0,1,0,1.06A7.43,7.43,0,0,0,36.12,135a7.41,7.41,0,0,0,6.16,2.39,2.5,2.5,0,0,1,1,.11,2.59,2.59,0,0,1,.93.52,2.63,2.63,0,0,1,.65.83,2.81,2.81,0,0,1,.27,1,7.38,7.38,0,0,0,1,3.27A7.45,7.45,0,0,0,55,146.51a2.65,2.65,0,0,1,1-.14,2.84,2.84,0,0,1,1,.29,2.74,2.74,0,0,1,.82.66,2.67,2.67,0,0,1,.5.94,7.4,7.4,0,0,0,4.5,4.84,7.46,7.46,0,0,0,3.37.45,7.58,7.58,0,0,0,3.22-1.1,2.65,2.65,0,0,1,1-.38,2.53,2.53,0,0,1,1.06,0,2.6,2.6,0,0,1,1,.45,2.71,2.71,0,0,1,.71.8,7.51,7.51,0,0,0,2.31,2.48,7.48,7.48,0,0,0,6.56.85A7.49,7.49,0,0,0,85,154.88a2.54,2.54,0,0,1,.87-.61,2.65,2.65,0,0,1,1-.21,2.68,2.68,0,0,1,1,.21,2.74,2.74,0,0,1,.87.61A7.44,7.44,0,0,0,95,157.17a7.43,7.43,0,0,0,5.59-3.53,2.52,2.52,0,0,1,.71-.78,2.67,2.67,0,0,1,1-.44,2.7,2.7,0,0,1,1.06,0,2.75,2.75,0,0,1,1,.4,7.38,7.38,0,0,0,3.18,1.17,7.44,7.44,0,0,0,6.24-2.18,7.56,7.56,0,0,0,1.76-2.91,2.57,2.57,0,0,1,.51-.93,2.67,2.67,0,0,1,.84-.65,2.62,2.62,0,0,1,1-.27,2.71,2.71,0,0,1,1,.16,7.58,7.58,0,0,0,3.37.41,7.48,7.48,0,0,0,6.63-6.81,2.59,2.59,0,0,1,.28-1,2.7,2.7,0,0,1,.67-.83,2.54,2.54,0,0,1,.93-.5,2.7,2.7,0,0,1,1.06-.09,7.43,7.43,0,0,0,3.37-.39,7.45,7.45,0,0,0,4.59-4.76,7.45,7.45,0,0,0,.27-3.38,2.85,2.85,0,0,1,0-1.05,2.75,2.75,0,0,1,.46-.94,2.7,2.7,0,0,1,.79-.68,2.57,2.57,0,0,1,1-.33,7.6,7.6,0,0,0,3.18-1.16,7.5,7.5,0,0,0,2.34-2.45,7.59,7.59,0,0,0,1-3.24,7.48,7.48,0,0,0-.53-3.34,2.57,2.57,0,0,1,0-2.08,2.58,2.58,0,0,1,1.52-1.42,7.57,7.57,0,0,0,2.83-1.87,7.46,7.46,0,0,0,.68-9.45,2.67,2.67,0,0,1-.44-1,2.53,2.53,0,0,1,0-1.06,2.62,2.62,0,0,1,.39-1,2.59,2.59,0,0,1,.76-.75,7.44,7.44,0,0,0,3.32-5.71,7.49,7.49,0,0,0-2.52-6.11"/><path class="cls-4" d="M146.22,88.7a58.6,58.6,0,1,1-4.46-22.43A58.55,58.55,0,0,1,146.22,88.7Z"/><g class="cls-6"><g class="cls-7"><path class="cls-1" d="M154,32.62a9.38,9.38,0,0,0-3-.57,3.41,3.41,0,0,1-1.3-.28A3.26,3.26,0,0,1,148,29.86a3.24,3.24,0,0,1-.19-1.31,9.35,9.35,0,0,0-.74-4.18,9.5,9.5,0,0,0-2.52-3.43,9.32,9.32,0,0,0-8-2,3.36,3.36,0,0,1-1.34,0A3.35,3.35,0,0,1,133,17.51a3.32,3.32,0,0,1-.49-1.24,9.37,9.37,0,0,0-4.94-6.67,9.34,9.34,0,0,0-8.29-.1,3.33,3.33,0,0,1-2.6.13,3.46,3.46,0,0,1-1.13-.7,3.16,3.16,0,0,1-.76-1.09,9.42,9.42,0,0,0-2.55-3.41,9.31,9.31,0,0,0-11.86-.12,3.52,3.52,0,0,1-1.18.62,3.31,3.31,0,0,1-1.33.1,3.19,3.19,0,0,1-1.26-.42,3.21,3.21,0,0,1-1-.88A9.38,9.38,0,0,0,88.37,0a9.46,9.46,0,0,0-4.09.83A9.3,9.3,0,0,0,81,3.35a3.33,3.33,0,0,1-2.16,1.17,3.27,3.27,0,0,1-2.36-.67,9.52,9.52,0,0,0-3.77-1.79A9.3,9.3,0,0,0,62.23,7.25a3.32,3.32,0,0,1-.78,1.07A3.21,3.21,0,0,1,60.3,9,3.43,3.43,0,0,1,59,9.18a3.35,3.35,0,0,1-1.28-.35,9.32,9.32,0,0,0-13.37,6.46,3.45,3.45,0,0,1-.51,1.22,3.33,3.33,0,0,1-.95.92,3.39,3.39,0,0,1-1.22.48,3.45,3.45,0,0,1-1.32,0,9.33,9.33,0,0,0-11.51,9.36,3.44,3.44,0,0,1-.22,1.31,3.29,3.29,0,0,1-.71,1.12,3.34,3.34,0,0,1-1.1.76,3.43,3.43,0,0,1-1.3.26,9.26,9.26,0,0,0-7.41,3.66,9.26,9.26,0,0,0-1.59,8.11,3.31,3.31,0,0,1,.09,1.33A3.59,3.59,0,0,1,16.14,45a3.24,3.24,0,0,1-.9,1,3.4,3.4,0,0,1-1.21.55A9.33,9.33,0,0,0,7.92,60.11a3.37,3.37,0,0,1,.26,2.59,3.22,3.22,0,0,1-.64,1.16,3.36,3.36,0,0,1-1,.82A9.35,9.35,0,0,0,3.56,67a9.08,9.08,0,0,0-1.8,3.26,97.62,97.62,0,0,0,62,22.1,98.19,98.19,0,0,0,54.12-16.27A98.13,98.13,0,0,0,154,32.62Z"/></g></g><path class="cls-5" d="M50.83,89.77a6.22,6.22,0,1,1-6.22-6.23A6.31,6.31,0,0,1,47,84a6.12,6.12,0,0,1,2,1.35,6.23,6.23,0,0,1,1.35,2A6.32,6.32,0,0,1,50.83,89.77Z"/><path class="cls-5" d="M138,89.77a6.22,6.22,0,1,1-6.22-6.23,6.31,6.31,0,0,1,2.38.47,6.12,6.12,0,0,1,2,1.35,6.23,6.23,0,0,1,1.35,2A6.32,6.32,0,0,1,138,89.77Z"/><path class="cls-5" d="M100.06,117H84.74V70.68H74.23V57.28h25.83Z"/><path class="cls-1" d="M97.77,118.11H82.45V71.78H71.94V58.38H97.77Z"/></g></g></g></svg>