<svg width="203" height="218" viewBox="0 0 203 218" fill="none" xmlns="http://www.w3.org/2000/svg">
<g clip-path="url(#clip0_692_500)">
<path d="M155.24 217.89L114.78 202.33L74.3301 217.89V102.74H155.24V217.89Z" fill="#E7234F"/>
<path d="M198.86 85.89C198.521 85.5982 198.244 85.2408 198.047 84.8392C197.85 84.4376 197.736 84.0002 197.713 83.5534C197.689 83.1067 197.757 82.6598 197.911 82.2398C198.065 81.8199 198.303 81.4355 198.61 81.11C199.594 80.0634 200.323 78.8038 200.74 77.4293C201.157 76.0549 201.251 74.6026 201.015 73.1858C200.779 71.7689 200.219 70.4258 199.378 69.2609C198.538 68.096 197.44 67.1409 196.17 66.47C195.772 66.2639 195.42 65.9792 195.136 65.6331C194.851 65.2871 194.64 64.887 194.515 64.4569C194.39 64.0268 194.353 63.5758 194.407 63.1311C194.461 62.6865 194.605 62.2574 194.83 61.87C195.545 60.6242 195.963 59.23 196.051 57.7962C196.139 56.3623 195.895 54.9275 195.338 53.6035C194.78 52.2795 193.925 51.1022 192.837 50.1632C191.75 49.2242 190.461 48.5489 189.07 48.19C188.633 48.0807 188.223 47.8838 187.865 47.6111C187.506 47.3384 187.207 46.9956 186.985 46.6037C186.764 46.2117 186.624 45.7788 186.575 45.3312C186.526 44.8836 186.568 44.4307 186.7 44C187.112 42.6225 187.199 41.1685 186.956 39.7515C186.714 38.3345 186.146 36.9927 185.299 35.8311C184.452 34.6694 183.348 33.7192 182.073 33.0546C180.798 32.3901 179.387 32.0291 177.95 32C177.502 31.9953 177.06 31.8998 176.65 31.7193C176.24 31.5388 175.871 31.2771 175.566 30.9499C175.26 30.6227 175.024 30.2368 174.872 29.8157C174.719 29.3946 174.654 28.947 174.68 28.5C174.756 27.0667 174.502 25.635 173.935 24.3162C173.369 22.9973 172.506 21.8267 171.414 20.8952C170.322 19.9637 169.03 19.2965 167.639 18.9452C166.247 18.594 164.793 18.5683 163.39 18.87C162.952 18.9704 162.499 18.9808 162.058 18.9005C161.616 18.8203 161.195 18.6511 160.821 18.4033C160.447 18.1554 160.127 17.834 159.881 17.4587C159.635 17.0834 159.468 16.6619 159.39 16.22C159.131 14.8119 158.551 13.4825 157.695 12.3349C156.839 11.1872 155.73 10.2521 154.455 9.60222C153.179 8.95231 151.771 8.60501 150.339 8.58728C148.908 8.56955 147.491 8.88185 146.2 9.49997C145.798 9.69627 145.36 9.80902 144.913 9.83139C144.466 9.85377 144.02 9.78531 143.6 9.63015C143.18 9.47499 142.796 9.23636 142.471 8.92867C142.147 8.62098 141.888 8.25062 141.71 7.83997C141.135 6.52399 140.263 5.35841 139.164 4.43385C138.065 3.50929 136.768 2.85065 135.373 2.50915C133.978 2.16764 132.523 2.15246 131.121 2.46479C129.719 2.77712 128.408 3.40854 127.29 4.30997C126.944 4.59341 126.544 4.8038 126.115 4.92845C125.685 5.0531 125.235 5.08942 124.791 5.03521C124.347 4.98101 123.919 4.8374 123.532 4.61307C123.145 4.38873 122.807 4.08832 122.54 3.72997C121.696 2.60425 120.607 1.6843 119.357 1.03912C118.106 0.393943 116.726 0.0402922 115.319 0.00469255C113.913 -0.0309071 112.516 0.252469 111.235 0.833565C109.953 1.41466 108.82 2.27839 107.92 3.35997C107.377 4.01199 106.602 4.4276 105.759 4.51903C104.916 4.61045 104.07 4.37055 103.4 3.84997C102.295 2.97788 101.006 2.36754 99.631 2.06478C98.2561 1.76203 96.8304 1.77472 95.461 2.1019C94.0916 2.42909 92.8142 3.06227 91.7246 3.95389C90.635 4.84552 89.7615 5.97242 89.1698 7.24997C88.9849 7.65756 88.7192 8.0234 88.3889 8.32538C88.0585 8.62737 87.6704 8.85921 87.2478 9.0069C86.8253 9.1546 86.3773 9.21506 85.9307 9.18465C85.4842 9.15424 85.0484 9.03358 84.6498 8.82997C83.3689 8.18077 81.9553 7.83603 80.5193 7.82261C79.0832 7.80919 77.6635 8.12746 76.3706 8.75261C75.0777 9.37776 73.9466 10.2929 73.0654 11.4268C72.1841 12.5607 71.5765 13.8828 71.2898 15.29C71.2035 15.7256 71.0304 16.1395 70.7808 16.5069C70.5313 16.8742 70.2103 17.1876 69.8371 17.4284C69.4638 17.6691 69.046 17.8323 68.6083 17.9081C68.1707 17.984 67.7223 17.971 67.2898 17.87C65.8938 17.5342 64.4391 17.5248 63.0388 17.8426C61.6385 18.1603 60.3303 18.7966 59.2159 19.7021C58.1015 20.6075 57.2109 21.7578 56.6132 23.0633C56.0156 24.3689 55.727 25.7947 55.7698 27.23C55.7888 27.6771 55.7168 28.1235 55.5584 28.542C55.3999 28.9606 55.1582 29.3427 54.8478 29.6652C54.5375 29.9876 54.165 30.2438 53.7528 30.4183C53.3406 30.5927 52.8974 30.6817 52.4498 30.68C51.0163 30.6788 49.6018 31.0083 48.3164 31.6429C47.0309 32.2774 45.9092 33.2 45.0385 34.3388C44.1677 35.4775 43.5714 36.8018 43.2958 38.2086C43.0203 39.6154 43.073 41.0669 43.4498 42.45C43.5709 42.8809 43.6033 43.3319 43.5451 43.7757C43.4869 44.2195 43.3393 44.6468 43.1112 45.032C42.8832 45.4171 42.5793 45.7519 42.2181 46.0163C41.857 46.2807 41.4459 46.469 41.0098 46.57C39.6109 46.8961 38.3062 47.5409 37.1973 48.454C36.0884 49.3671 35.2054 50.524 34.617 51.8344C34.0285 53.1448 33.7506 54.5734 33.8049 56.0088C33.8592 57.4442 34.2441 58.8477 34.9298 60.11C35.1483 60.5007 35.2851 60.9318 35.3317 61.377C35.3783 61.8223 35.3338 62.2723 35.201 62.6998C35.0681 63.1273 34.8497 63.5233 34.559 63.8638C34.2682 64.2042 33.9113 64.4819 33.5098 64.68C32.2244 65.3211 31.1043 66.2505 30.237 67.3955C29.3696 68.5406 28.7784 69.8705 28.5093 71.2815C28.2403 72.6926 28.3007 74.1467 28.6858 75.5306C29.071 76.9145 29.7705 78.1908 30.7298 79.26C31.0216 79.5943 31.2432 79.9839 31.3814 80.4056C31.5196 80.8273 31.5716 81.2725 31.5343 81.7147C31.497 82.1569 31.3711 82.5871 31.1642 82.9797C30.9573 83.3723 30.6735 83.7192 30.3298 84C29.2233 84.922 28.345 86.0874 27.7636 87.4052C27.1821 88.7229 26.9134 90.1573 26.9782 91.5962C27.0431 93.0351 27.4399 94.4394 28.1375 95.6995C28.8352 96.9596 29.8148 98.0413 30.9998 98.86C31.3701 99.1112 31.6854 99.4352 31.9266 99.8121C32.1678 100.189 32.3298 100.611 32.4027 101.053C32.4757 101.494 32.4581 101.946 32.351 102.38C32.2439 102.815 32.0496 103.223 31.7798 103.58C30.9205 104.73 30.3383 106.064 30.0786 107.476C29.8189 108.888 29.8887 110.342 30.2825 111.722C30.6764 113.103 31.3837 114.375 32.3493 115.438C33.315 116.5 34.5129 117.326 35.8498 117.85C36.2665 118.012 36.6463 118.257 36.9664 118.569C37.2865 118.881 37.5405 119.255 37.7131 119.667C37.8858 120.08 37.9736 120.523 37.9713 120.97C37.969 121.417 37.8767 121.859 37.6998 122.27C37.1186 123.59 36.8514 125.027 36.9192 126.468C36.987 127.909 37.3879 129.314 38.0904 130.574C38.7929 131.834 39.778 132.913 40.9682 133.728C42.1584 134.543 43.5213 135.071 44.9498 135.27C45.3935 135.329 45.8206 135.478 46.2053 135.706C46.5899 135.935 46.9242 136.24 47.1878 136.602C47.4514 136.963 47.6389 137.375 47.7389 137.811C47.839 138.247 47.8495 138.7 47.7698 139.14C47.5204 140.55 47.5988 141.998 47.9987 143.372C48.3987 144.747 49.1096 146.011 50.0764 147.067C51.0432 148.122 52.2399 148.941 53.574 149.46C54.9081 149.98 56.3438 150.185 57.7698 150.06C58.2148 150.016 58.664 150.063 59.0906 150.197C59.5171 150.331 59.9122 150.549 60.2521 150.84C60.5921 151.13 60.8698 151.486 61.0688 151.887C61.2677 152.287 61.3837 152.724 61.4098 153.17C61.4919 154.604 61.9038 156.001 62.6135 157.25C63.3231 158.499 64.3115 159.568 65.5016 160.373C66.6916 161.178 68.0514 161.697 69.4751 161.891C70.8987 162.085 72.3479 161.948 73.7098 161.49C74.1308 161.337 74.5783 161.272 75.0253 161.297C75.4724 161.322 75.9097 161.438 76.3107 161.637C76.7117 161.836 77.0682 162.114 77.3586 162.455C77.6489 162.796 77.8671 163.192 77.9998 163.62C78.4084 164.997 79.1298 166.262 80.1079 167.314C81.0859 168.367 82.2941 169.179 83.6379 169.687C84.9817 170.195 86.4249 170.386 87.8546 170.244C89.2844 170.103 90.662 169.632 91.8798 168.87C92.2561 168.63 92.6769 168.469 93.117 168.397C93.557 168.324 94.0073 168.341 94.4407 168.446C94.874 168.552 95.2816 168.744 95.6389 169.011C95.9962 169.278 96.2958 169.614 96.5198 170C97.2368 171.244 98.2313 172.305 99.4259 173.101C100.62 173.897 101.983 174.406 103.407 174.589C104.83 174.772 106.277 174.624 107.634 174.156C108.991 173.687 110.222 172.912 111.23 171.89C111.546 171.576 111.922 171.329 112.336 171.164C112.75 170.999 113.193 170.919 113.638 170.93C114.084 170.94 114.522 171.04 114.928 171.224C115.334 171.408 115.698 171.672 116 172C116.987 173.043 118.201 173.844 119.547 174.342C120.894 174.839 122.338 175.019 123.765 174.868C125.193 174.718 126.567 174.239 127.78 173.471C128.993 172.703 130.013 171.666 130.76 170.44C130.99 170.056 131.295 169.722 131.657 169.459C132.02 169.196 132.431 169.01 132.868 168.911C133.305 168.812 133.757 168.802 134.197 168.883C134.637 168.963 135.057 169.133 135.43 169.38C136.63 170.167 137.996 170.666 139.421 170.839C140.846 171.013 142.291 170.855 143.646 170.379C145 169.904 146.226 169.122 147.229 168.095C148.232 167.069 148.985 165.825 149.43 164.46C149.565 164.033 149.785 163.638 150.077 163.298C150.368 162.959 150.726 162.682 151.128 162.485C151.53 162.287 151.968 162.174 152.415 162.151C152.862 162.127 153.31 162.195 153.73 162.35C155.078 162.839 156.52 163.011 157.945 162.852C159.37 162.693 160.74 162.208 161.947 161.434C163.154 160.66 164.167 159.619 164.906 158.39C165.645 157.161 166.091 155.779 166.21 154.35C166.25 153.909 166.377 153.48 166.586 153.088C166.794 152.697 167.078 152.351 167.422 152.072C167.766 151.792 168.162 151.584 168.588 151.46C169.014 151.336 169.46 151.299 169.9 151.35C171.326 151.516 172.771 151.35 174.123 150.866C175.475 150.382 176.696 149.593 177.693 148.559C178.69 147.526 179.435 146.276 179.869 144.908C180.304 143.539 180.417 142.089 180.2 140.67C180.129 140.228 180.149 139.776 180.257 139.341C180.366 138.906 180.56 138.498 180.83 138.14C181.1 137.783 181.439 137.483 181.827 137.26C182.216 137.036 182.645 136.894 183.09 136.84C184.526 136.677 185.904 136.182 187.117 135.396C188.33 134.61 189.343 133.552 190.078 132.308C190.813 131.063 191.248 129.665 191.351 128.224C191.454 126.782 191.221 125.336 190.67 124C190.497 123.588 190.409 123.144 190.413 122.697C190.416 122.25 190.511 121.808 190.69 121.398C190.87 120.989 191.131 120.62 191.457 120.314C191.784 120.008 192.169 119.772 192.59 119.62C193.946 119.129 195.169 118.33 196.165 117.286C197.16 116.243 197.901 114.983 198.328 113.606C198.755 112.228 198.857 110.771 198.627 109.347C198.397 107.923 197.84 106.572 197 105.4C196.738 105.037 196.553 104.626 196.454 104.189C196.356 103.753 196.346 103.302 196.427 102.862C196.507 102.422 196.675 102.003 196.922 101.63C197.168 101.256 197.487 100.937 197.86 100.69C199.059 99.8995 200.058 98.8426 200.781 97.602C201.504 96.3614 201.931 94.9704 202.028 93.5378C202.124 92.1051 201.889 90.6695 201.339 89.3429C200.79 88.0163 199.941 86.8346 198.86 85.89Z" fill="#FEAF18"/>
<path d="M187.85 86.09C187.555 85.8356 187.315 85.5241 187.144 85.1743C186.973 84.8246 186.875 84.4437 186.855 84.0549C186.836 83.6661 186.895 83.2773 187.03 82.9121C187.165 82.5468 187.373 82.2128 187.64 81.93C188.492 81.0195 189.123 79.9249 189.484 78.7312C189.845 77.5374 189.926 76.2766 189.721 75.0465C189.516 73.8164 189.03 72.65 188.302 71.6378C187.573 70.6257 186.622 69.7949 185.52 69.21C185.174 69.031 184.868 68.7837 184.62 68.4829C184.373 68.1822 184.188 67.8344 184.079 67.4604C183.97 67.0865 183.937 66.6942 183.984 66.3074C184.03 65.9206 184.155 65.5473 184.35 65.21C184.97 64.1272 185.331 62.9162 185.407 61.671C185.483 60.4258 185.271 59.1798 184.787 58.0299C184.304 56.8799 183.562 55.8568 182.619 55.04C181.676 54.2232 180.557 53.6346 179.35 53.32C178.973 53.2242 178.619 53.0534 178.31 52.8177C178.001 52.582 177.742 52.2863 177.55 51.9483C177.358 51.6103 177.235 51.237 177.191 50.8506C177.146 50.4643 177.18 50.073 177.29 49.7C177.646 48.503 177.721 47.2399 177.508 46.0093C177.296 44.7787 176.802 43.6137 176.066 42.6052C175.329 41.5967 174.37 40.7719 173.262 40.1951C172.155 39.6184 170.929 39.3052 169.68 39.28C169.295 39.2764 168.914 39.1951 168.56 39.041C168.207 38.8869 167.888 38.6632 167.623 38.3832C167.358 38.1032 167.152 37.7726 167.017 37.4113C166.883 37.0499 166.823 36.6652 166.84 36.28C166.915 35.0275 166.699 33.7745 166.209 32.6195C165.719 31.4644 164.967 30.4388 164.014 29.623C163.061 28.8071 161.931 28.2234 160.714 27.9175C159.497 27.6116 158.226 27.5919 157 27.86C156.621 27.9458 156.229 27.9537 155.847 27.8834C155.465 27.8131 155.101 27.666 154.778 27.4509C154.454 27.2359 154.178 26.9574 153.965 26.6324C153.752 26.3074 153.608 25.9425 153.54 25.56C153.319 24.3304 152.817 23.1684 152.073 22.1645C151.33 21.1606 150.364 20.3418 149.253 19.7719C148.141 19.2019 146.913 18.8962 145.663 18.8786C144.414 18.8609 143.178 19.1317 142.05 19.67C141.701 19.8398 141.321 19.9373 140.933 19.9565C140.545 19.9757 140.157 19.9163 139.793 19.7817C139.429 19.6472 139.095 19.4404 138.813 19.1737C138.531 18.9071 138.305 18.5861 138.15 18.23C137.65 17.0859 136.892 16.0724 135.937 15.2682C134.981 14.4641 133.854 13.8908 132.641 13.5929C131.428 13.2951 130.163 13.2806 128.944 13.5506C127.724 13.8206 126.584 14.3679 125.61 15.15C125.31 15.3977 124.963 15.5819 124.589 15.6912C124.216 15.8006 123.824 15.8329 123.438 15.7861C123.052 15.7393 122.679 15.6145 122.342 15.4192C122.006 15.2239 121.712 14.9622 121.48 14.65C120.746 13.671 119.8 12.871 118.713 12.31C117.626 11.749 116.426 11.4416 115.203 11.4108C113.98 11.38 112.765 11.6266 111.651 12.1322C110.537 12.6378 109.552 13.3892 108.77 14.33C108.298 14.896 107.625 15.257 106.892 15.3372C106.159 15.4174 105.424 15.2105 104.84 14.76C103.877 14.003 102.754 13.4744 101.556 13.2142C100.359 12.9539 99.1179 12.9688 97.927 13.2576C96.7361 13.5464 95.6263 14.1017 94.681 14.8816C93.7358 15.6614 92.9799 16.6456 92.4701 17.76C92.3088 18.1139 92.0774 18.4314 91.79 18.6934C91.5025 18.9554 91.165 19.1565 90.7978 19.2845C90.4305 19.4125 90.0412 19.4648 89.6532 19.4383C89.2651 19.4117 88.8865 19.3068 88.5401 19.13C87.4299 18.5662 86.2047 18.2657 84.9596 18.2516C83.7145 18.2376 82.4829 18.5105 81.3602 19.0491C80.2375 19.5877 79.2539 20.3776 78.4857 21.3575C77.7175 22.3375 77.1852 23.4812 76.9301 24.7C76.8605 25.0865 76.7129 25.4548 76.4962 25.7823C76.2795 26.1098 75.9983 26.3897 75.6699 26.605C75.3414 26.8202 74.9725 26.9663 74.5857 27.0342C74.1989 27.1021 73.8023 27.0905 73.4201 27C72.2072 26.7107 70.944 26.7047 69.7284 26.9824C68.5128 27.26 67.3775 27.8139 66.4105 28.6011C65.4434 29.3883 64.6707 30.3876 64.1521 31.5215C63.6335 32.6555 63.3831 33.8936 63.4201 35.14C63.4349 35.5287 63.3711 35.9163 63.2325 36.2798C63.094 36.6432 62.8834 36.9749 62.6136 37.255C62.3437 37.5351 62.0201 37.7579 61.6621 37.91C61.3041 38.062 60.9191 38.1403 60.5301 38.14C59.2816 38.1351 58.0488 38.4185 56.9278 38.9681C55.8068 39.5177 54.8278 40.3188 54.0671 41.3088C53.3065 42.2989 52.7847 43.4512 52.5423 44.6759C52.3 45.9007 52.3438 47.1649 52.6701 48.37C52.7748 48.7444 52.8025 49.1361 52.7517 49.5216C52.7009 49.907 52.5726 50.2781 52.3745 50.6126C52.1764 50.9471 51.9127 51.2381 51.5991 51.4679C51.2856 51.6978 50.9288 51.8618 50.5501 51.95C49.3345 52.2341 48.2008 52.795 47.2375 53.589C46.2741 54.383 45.5071 55.3887 44.9961 56.5278C44.4852 57.6668 44.2441 58.9085 44.2916 60.1559C44.3391 61.4034 44.674 62.6231 45.2701 63.72C45.4613 64.0619 45.5809 64.439 45.6218 64.8285C45.6627 65.2181 45.6239 65.6118 45.508 65.9859C45.392 66.36 45.2012 66.7066 44.9471 67.0047C44.6931 67.3028 44.3811 67.5462 44.0301 67.72C42.9242 68.2785 41.9609 69.083 41.2141 70.0717C40.4674 71.0604 39.9572 72.207 39.7226 73.4236C39.4879 74.6401 39.5352 75.8943 39.8606 77.0898C40.1861 78.2853 40.7812 79.3903 41.6001 80.32C41.8617 80.6086 42.0623 80.9471 42.1897 81.3152C42.3172 81.6832 42.3689 82.0732 42.3418 82.4618C42.3147 82.8504 42.2094 83.2294 42.0321 83.5763C41.8548 83.9231 41.6092 84.2305 41.3101 84.48C40.353 85.281 39.5934 86.2918 39.0903 87.434C38.5872 88.5762 38.3542 89.819 38.4093 91.0659C38.4644 92.3127 38.8062 93.5301 39.4082 94.6234C40.0102 95.7168 40.856 96.6566 41.8801 97.37C42.2027 97.5874 42.4776 97.8684 42.6878 98.1957C42.8981 98.523 43.0394 98.8898 43.103 99.2736C43.1667 99.6574 43.1514 100.05 43.058 100.428C42.9647 100.805 42.7953 101.16 42.5601 101.47C41.8141 102.472 41.3089 103.632 41.0837 104.861C40.8586 106.089 40.9196 107.353 41.262 108.554C41.6043 109.756 42.2189 110.862 43.058 111.787C43.897 112.713 44.938 113.432 46.1001 113.89C46.4623 114.029 46.7926 114.24 47.0712 114.51C47.3497 114.781 47.5708 115.104 47.7212 115.462C47.8716 115.82 47.9481 116.204 47.9462 116.592C47.9443 116.98 47.864 117.364 47.7101 117.72C47.2068 118.865 46.9756 120.112 47.0348 121.362C47.094 122.612 47.442 123.831 48.0513 124.923C48.6607 126.016 49.5149 126.953 50.547 127.66C51.5791 128.368 52.7611 128.826 54.0001 129C54.3856 129.053 54.7563 129.184 55.09 129.384C55.4238 129.584 55.7138 129.849 55.9425 130.163C56.1713 130.478 56.3342 130.836 56.4214 131.215C56.5086 131.594 56.5184 131.987 56.4501 132.37C56.2329 133.599 56.3019 134.861 56.6518 136.059C57.0016 137.257 57.6229 138.359 58.4673 139.278C59.3118 140.196 60.3567 140.908 61.5209 141.358C62.6851 141.808 63.9372 141.983 65.1801 141.87C65.5673 141.83 65.9585 141.869 66.3301 141.985C66.7017 142.1 67.046 142.29 67.3423 142.542C67.6386 142.795 67.8806 143.104 68.0538 143.453C68.2271 143.801 68.3279 144.181 68.3501 144.57C68.4201 145.817 68.7773 147.031 69.3937 148.118C70.0101 149.204 70.8692 150.134 71.9039 150.833C72.9386 151.533 74.121 151.985 75.3589 152.152C76.5967 152.32 77.8566 152.199 79.0401 151.8C79.4074 151.672 79.7969 151.619 80.185 151.646C80.5731 151.673 80.9516 151.779 81.2977 151.956C81.6437 152.134 81.95 152.38 82.198 152.68C82.446 152.98 82.6304 153.327 82.7401 153.7C83.097 154.897 83.7253 155.995 84.5762 156.909C85.4271 157.823 86.4776 158.528 87.6458 158.969C88.814 159.411 90.0683 159.576 91.311 159.453C92.5537 159.33 93.7512 158.922 94.8101 158.26C95.1371 158.058 95.5012 157.924 95.8808 157.865C96.2605 157.806 96.6481 157.824 97.0209 157.917C97.3936 158.01 97.744 158.177 98.0513 158.408C98.3585 158.638 98.6166 158.928 98.8101 159.26C99.4349 160.341 100.301 161.263 101.34 161.955C102.379 162.647 103.564 163.09 104.802 163.25C106.04 163.41 107.299 163.281 108.48 162.876C109.66 162.47 110.732 161.797 111.61 160.91C111.88 160.629 112.204 160.405 112.562 160.253C112.92 160.1 113.306 160.021 113.695 160.021C114.085 160.021 114.47 160.1 114.828 160.253C115.187 160.405 115.51 160.629 115.78 160.91C116.638 161.817 117.693 162.513 118.863 162.946C120.033 163.379 121.288 163.536 122.529 163.405C123.77 163.275 124.964 162.86 126.019 162.193C127.073 161.526 127.96 160.625 128.61 159.56C128.809 159.226 129.074 158.935 129.389 158.706C129.704 158.477 130.062 158.314 130.441 158.227C130.821 158.14 131.214 158.131 131.597 158.2C131.98 158.269 132.345 158.416 132.67 158.63C133.712 159.318 134.899 159.756 136.139 159.909C137.378 160.062 138.636 159.927 139.814 159.513C140.992 159.1 142.059 158.419 142.931 157.526C143.803 156.632 144.456 155.548 144.84 154.36C144.957 153.988 145.148 153.644 145.402 153.348C145.656 153.053 145.967 152.811 146.316 152.639C146.666 152.467 147.047 152.368 147.436 152.348C147.825 152.327 148.214 152.386 148.58 152.52C149.755 152.944 151.013 153.091 152.254 152.95C153.495 152.808 154.687 152.382 155.737 151.705C156.787 151.028 157.667 150.117 158.307 149.044C158.948 147.972 159.332 146.766 159.43 145.52C159.46 145.133 159.567 144.755 159.746 144.41C159.925 144.065 160.172 143.76 160.472 143.513C160.771 143.265 161.118 143.081 161.491 142.97C161.863 142.86 162.254 142.826 162.64 142.87C163.884 143.02 165.145 142.881 166.326 142.462C167.506 142.044 168.574 141.358 169.446 140.459C170.317 139.559 170.969 138.47 171.349 137.277C171.73 136.083 171.83 134.818 171.64 133.58C171.578 133.196 171.594 132.803 171.688 132.426C171.782 132.049 171.951 131.694 172.186 131.384C172.42 131.074 172.715 130.814 173.053 130.621C173.391 130.428 173.764 130.305 174.15 130.26C175.389 130.112 176.577 129.681 177.622 129C178.667 128.319 179.542 127.407 180.177 126.333C180.813 125.259 181.192 124.054 181.286 122.81C181.38 121.566 181.187 120.317 180.72 119.16C180.569 118.801 180.493 118.414 180.496 118.024C180.499 117.635 180.581 117.25 180.737 116.892C180.893 116.535 181.12 116.213 181.404 115.947C181.689 115.68 182.024 115.473 182.39 115.34C183.562 114.911 184.619 114.217 185.479 113.313C186.339 112.408 186.979 111.318 187.35 110.126C187.72 108.935 187.811 107.674 187.615 106.441C187.419 105.209 186.942 104.038 186.22 103.02C186.004 102.706 185.853 102.352 185.775 101.979C185.697 101.606 185.694 101.221 185.767 100.846C185.84 100.472 185.986 100.116 186.198 99.7991C186.41 99.4821 186.682 99.2104 187 99C188.04 98.3095 188.907 97.3888 189.534 96.3092C190.161 95.2297 190.531 94.0203 190.615 92.7748C190.699 91.5293 190.495 90.2811 190.019 89.1271C189.543 87.973 188.808 86.9441 187.87 86.12" fill="#F7931E"/>
<path d="M181.85 86.1999C181.578 85.9672 181.357 85.6817 181.199 85.3607C181.041 85.0398 180.949 84.6901 180.931 84.3328C180.912 83.9755 180.966 83.6182 181.09 83.2825C181.213 82.9468 181.404 82.6397 181.65 82.3799C182.433 81.5417 183.012 80.5335 183.342 79.4343C183.671 78.3351 183.742 77.1747 183.548 76.0437C183.354 74.9127 182.902 73.8418 182.225 72.9148C181.549 71.9878 180.668 71.2297 179.65 70.6999C179.332 70.5314 179.053 70.3 178.828 70.0197C178.603 69.7393 178.438 69.4161 178.343 69.0697C178.247 68.7233 178.223 68.3611 178.273 68.0052C178.322 67.6493 178.444 67.3072 178.63 66.9999C179.192 66.0039 179.518 64.8919 179.582 63.7499C179.646 62.6079 179.446 61.4664 178.999 60.4138C178.551 59.3612 177.868 58.4256 177.001 57.6793C176.134 56.933 175.107 56.3961 174 56.1099C173.653 56.0234 173.328 55.8676 173.043 55.6519C172.758 55.4363 172.519 55.1652 172.342 54.8551C172.164 54.545 172.051 54.2021 172.01 53.8472C171.968 53.4923 171.999 53.1327 172.1 52.7899C172.427 51.6897 172.495 50.5288 172.299 49.3979C172.103 48.267 171.649 47.1966 170.971 46.2703C170.294 45.3439 169.411 44.5866 168.393 44.0575C167.374 43.5284 166.247 43.2417 165.1 43.2199C164.743 43.215 164.391 43.1382 164.065 42.9939C163.738 42.8497 163.445 42.6411 163.201 42.3805C162.957 42.12 162.769 41.8129 162.646 41.4778C162.524 41.1426 162.471 40.7862 162.49 40.4299C162.552 39.2865 162.35 38.1441 161.899 37.0915C161.448 36.0389 160.761 35.1044 159.89 34.3605C159.02 33.6167 157.99 33.0835 156.879 32.8024C155.769 32.5214 154.609 32.5 153.49 32.7399C153.141 32.8184 152.78 32.8252 152.429 32.7601C152.078 32.6949 151.743 32.5592 151.446 32.3609C151.148 32.1627 150.894 31.9062 150.699 31.6069C150.504 31.3077 150.371 30.9719 150.31 30.6199C150.108 29.4914 149.648 28.4247 148.966 27.5031C148.284 26.5816 147.399 25.8301 146.378 25.3074C145.358 24.7846 144.231 24.5047 143.084 24.4896C141.938 24.4744 140.804 24.7243 139.77 25.2199C139.448 25.3763 139.098 25.4659 138.741 25.4833C138.383 25.5008 138.026 25.4457 137.691 25.3214C137.355 25.1972 137.049 25.0063 136.789 24.7602C136.529 24.5142 136.322 24.2182 136.18 23.8899C135.722 22.8386 135.027 21.9072 134.15 21.1684C133.273 20.4295 132.237 19.9031 131.123 19.6302C130.009 19.3573 128.847 19.3452 127.728 19.595C126.609 19.8447 125.562 20.3494 124.67 21.0699C124.394 21.2964 124.075 21.4645 123.733 21.5643C123.39 21.6641 123.031 21.6933 122.676 21.6503C122.322 21.6073 121.98 21.493 121.672 21.3141C121.363 21.1353 121.093 20.8958 120.88 20.6099C120.205 19.7128 119.336 18.9797 118.338 18.4655C117.341 17.9513 116.239 17.6692 115.117 17.6404C113.995 17.6116 112.881 17.8367 111.858 18.2989C110.835 18.7612 109.93 19.4486 109.21 20.3099C108.779 20.8345 108.161 21.17 107.486 21.2448C106.812 21.3195 106.135 21.1276 105.6 20.7099C104.717 20.0154 103.689 19.5295 102.592 19.2885C101.495 19.0476 100.357 19.0578 99.2646 19.3184C98.1721 19.5791 97.1526 20.0834 96.2824 20.7936C95.4123 21.5039 94.714 22.4017 94.2398 23.4199C94.0922 23.7455 93.8801 24.0379 93.6165 24.2794C93.3529 24.5209 93.0431 24.7066 92.7058 24.8253C92.3686 24.9439 92.0108 24.9931 91.654 24.9698C91.2972 24.9466 90.9488 24.8514 90.6298 24.6899C89.6091 24.1789 88.4846 23.9093 87.3432 23.9019C86.2017 23.8945 85.0738 24.1495 84.0466 24.6472C83.0193 25.1449 82.1202 25.8719 81.4185 26.7723C80.7168 27.6726 80.2315 28.7222 79.9998 29.8399C79.9315 30.1897 79.793 30.522 79.5927 30.8168C79.3925 31.1116 79.1346 31.3629 78.8347 31.5553C78.5348 31.7478 78.1989 31.8776 77.8475 31.9368C77.4961 31.996 77.1363 31.9835 76.7898 31.8999C75.675 31.6315 74.5133 31.6241 73.3951 31.8782C72.2769 32.1323 71.2325 32.6411 70.3432 33.365C69.4538 34.0888 68.7436 35.0082 68.2678 36.0515C67.7919 37.0948 67.5633 38.2338 67.5998 39.3799C67.6133 39.7371 67.5544 40.0933 67.4267 40.4271C67.2989 40.7609 67.1049 41.0654 66.8564 41.3223C66.6079 41.5793 66.31 41.7832 65.9807 41.922C65.6513 42.0608 65.2972 42.1315 64.9398 42.1299C63.7933 42.1232 62.6607 42.382 61.6309 42.886C60.601 43.3899 59.7017 44.1254 59.0034 45.0348C58.3052 45.9442 57.8268 47.0029 57.6059 48.1279C57.3849 49.253 57.4273 50.414 57.7298 51.5199C57.8255 51.8641 57.8505 52.2241 57.8035 52.5782C57.7565 52.9324 57.6384 53.2733 57.4562 53.5807C57.2741 53.888 57.0317 54.1553 56.7436 54.3665C56.4555 54.5778 56.1277 54.7286 55.7798 54.8099C54.6623 55.0692 53.6199 55.5834 52.7341 56.3123C51.8482 57.0413 51.1429 57.9652 50.6733 59.0118C50.2037 60.0585 49.9825 61.1996 50.027 62.3459C50.0715 63.4923 50.3805 64.6128 50.9298 65.6199C51.1021 65.9328 51.2093 66.2773 51.245 66.6327C51.2808 66.988 51.2443 67.347 51.1378 67.6879C51.0313 68.0288 50.857 68.3447 50.6254 68.6166C50.3937 68.8884 50.1095 69.1107 49.7898 69.2699C48.7637 69.7819 47.8697 70.5239 47.1773 71.4381C46.485 72.3522 46.013 73.4139 45.7982 74.5403C45.5833 75.6668 45.6314 76.8276 45.9387 77.9324C46.246 79.0372 46.8042 80.0562 47.5698 80.9099C47.8114 81.1734 47.9967 81.4834 48.1144 81.8209C48.2321 82.1585 48.2798 82.5164 48.2545 82.873C48.2293 83.2296 48.1316 83.5773 47.9674 83.8948C47.8033 84.2124 47.5761 84.4931 47.2998 84.7199C46.4212 85.4563 45.7242 86.3852 45.2628 87.4346C44.8014 88.484 44.588 89.6257 44.6393 90.7709C44.6906 91.9161 45.0051 93.0341 45.5584 94.0381C46.1117 95.042 46.889 95.905 47.8298 96.5599C48.1249 96.7612 48.376 97.0203 48.568 97.3215C48.76 97.6227 48.8889 97.9598 48.9468 98.3122C49.0048 98.6647 48.9906 99.0252 48.9052 99.372C48.8198 99.7188 48.6648 100.045 48.4498 100.33C47.7645 101.248 47.3004 102.313 47.0935 103.44C46.8867 104.567 46.9427 105.727 47.2571 106.829C47.5716 107.931 48.136 108.946 48.9066 109.794C49.6771 110.642 50.633 111.301 51.6998 111.72C52.0333 111.847 52.3375 112.04 52.5938 112.289C52.8501 112.537 53.0532 112.835 53.1907 113.164C53.3282 113.494 53.3973 113.847 53.3937 114.204C53.3901 114.561 53.3139 114.913 53.1698 115.24C52.7154 116.295 52.5109 117.441 52.5723 118.588C52.6336 119.736 52.9591 120.853 53.5234 121.854C54.0876 122.855 54.8755 123.712 55.8254 124.358C56.7753 125.004 57.8617 125.423 58.9998 125.58C59.3541 125.627 59.6952 125.745 60.0023 125.928C60.3095 126.111 60.5763 126.354 60.7867 126.643C60.9971 126.932 61.1466 127.261 61.2262 127.609C61.3058 127.957 61.3138 128.318 61.2498 128.67C61.0502 129.797 61.1128 130.955 61.433 132.054C61.7531 133.152 62.3221 134.163 63.0959 135.006C63.8696 135.849 64.8272 136.503 65.8945 136.917C66.9617 137.33 68.1099 137.492 69.2498 137.39C69.6059 137.354 69.9656 137.391 70.3071 137.498C70.6486 137.605 70.9648 137.781 71.2368 138.013C71.5087 138.246 71.7307 138.531 71.8893 138.852C72.048 139.173 72.14 139.523 72.1598 139.88C72.2229 141.028 72.5512 142.145 73.1188 143.145C73.6864 144.145 74.4779 144.999 75.4313 145.642C76.3847 146.284 77.4739 146.697 78.6136 146.847C79.7532 146.998 80.9123 146.882 81.9998 146.51C82.3376 146.394 82.6954 146.347 83.0517 146.373C83.4079 146.399 83.7553 146.497 84.0728 146.66C84.3904 146.824 84.6717 147.05 84.8997 147.325C85.1277 147.599 85.2979 147.918 85.3998 148.26C85.7278 149.358 86.3048 150.366 87.0859 151.205C87.8669 152.044 88.831 152.691 89.9031 153.096C90.9752 153.502 92.1264 153.654 93.2671 153.542C94.4077 153.43 95.5072 153.056 96.4798 152.45C96.7816 152.258 97.1192 152.128 97.4723 152.07C97.8253 152.011 98.1866 152.025 98.5342 152.11C98.8818 152.195 99.2086 152.35 99.4949 152.565C99.7812 152.779 100.021 153.05 100.2 153.36C100.771 154.355 101.564 155.204 102.518 155.842C103.472 156.479 104.56 156.887 105.698 157.034C106.835 157.182 107.992 157.064 109.076 156.69C110.161 156.316 111.144 155.697 111.95 154.88C112.196 154.622 112.493 154.416 112.821 154.275C113.149 154.135 113.503 154.062 113.86 154.062C114.217 154.062 114.57 154.135 114.899 154.275C115.227 154.416 115.523 154.622 115.77 154.88C116.557 155.713 117.525 156.354 118.6 156.752C119.675 157.15 120.827 157.294 121.967 157.174C123.106 157.054 124.203 156.673 125.172 156.06C126.14 155.447 126.954 154.619 127.55 153.64C127.734 153.333 127.978 153.067 128.267 152.858C128.556 152.648 128.885 152.499 129.234 152.419C129.582 152.34 129.943 152.332 130.295 152.396C130.646 152.459 130.981 152.593 131.28 152.79C132.237 153.42 133.326 153.821 134.463 153.961C135.601 154.101 136.755 153.976 137.836 153.597C138.917 153.217 139.896 152.593 140.696 151.773C141.496 150.954 142.097 149.96 142.45 148.87C142.558 148.529 142.733 148.214 142.966 147.944C143.199 147.673 143.484 147.452 143.805 147.294C144.125 147.136 144.474 147.045 144.831 147.025C145.187 147.005 145.544 147.058 145.88 147.18C146.959 147.575 148.115 147.715 149.257 147.59C150.4 147.465 151.498 147.077 152.466 146.458C153.434 145.838 154.245 145.004 154.838 144.019C155.43 143.034 155.787 141.925 155.88 140.78C155.906 140.423 156.004 140.075 156.168 139.757C156.332 139.439 156.558 139.158 156.834 138.93C157.109 138.702 157.428 138.532 157.771 138.431C158.114 138.329 158.475 138.298 158.83 138.34C159.968 138.472 161.122 138.339 162.201 137.952C163.28 137.565 164.255 136.934 165.05 136.109C165.846 135.283 166.44 134.286 166.787 133.193C167.134 132.101 167.224 130.943 167.05 129.81C166.999 129.461 167.019 129.106 167.108 128.765C167.197 128.424 167.353 128.105 167.567 127.825C167.782 127.546 168.05 127.312 168.356 127.137C168.662 126.963 169 126.852 169.35 126.81C170.485 126.671 171.572 126.273 172.528 125.646C173.485 125.019 174.284 124.18 174.864 123.195C175.444 122.21 175.79 121.104 175.874 119.964C175.958 118.824 175.779 117.68 175.35 116.62C175.212 116.291 175.142 115.937 175.145 115.58C175.148 115.222 175.223 114.87 175.366 114.543C175.509 114.215 175.717 113.921 175.977 113.676C176.237 113.432 176.544 113.242 176.88 113.12C177.958 112.728 178.932 112.091 179.724 111.261C180.515 110.43 181.104 109.427 181.444 108.331C181.784 107.235 181.866 106.075 181.683 104.942C181.5 103.809 181.057 102.733 180.39 101.8C180.171 101.514 180.012 101.186 179.924 100.837C179.836 100.488 179.82 100.124 179.877 99.7687C179.934 99.413 180.063 99.0728 180.256 98.7687C180.449 98.4645 180.702 98.203 181 97.9999C181.955 97.3673 182.752 96.5232 183.328 95.533C183.905 94.5427 184.245 93.433 184.324 92.2899C184.402 91.1468 184.216 90.0011 183.78 88.9415C183.344 87.8818 182.67 86.9369 181.81 86.1799" fill="white"/>
<path d="M173.17 88.7001C173.17 100.294 169.731 111.628 163.29 121.269C156.848 130.909 147.692 138.422 136.98 142.859C126.268 147.295 114.481 148.456 103.11 146.193C91.7384 143.93 81.2933 138.346 73.0956 130.147C64.8978 121.948 59.3156 111.502 57.0549 100.13C54.7941 88.7583 55.9564 76.9715 60.3948 66.2603C64.8331 55.549 72.3481 46.3945 81.9895 39.9545C91.6308 33.5144 102.965 30.0781 114.56 30.0801C122.257 30.0801 129.88 31.5964 136.991 34.5425C144.103 37.4885 150.564 41.8066 156.007 47.2501C161.449 52.6936 165.766 59.1559 168.711 66.2679C171.656 73.38 173.171 81.0025 173.17 88.7001Z" fill="#FEAF18"/>
<g opacity="0.22">
<mask id="mask0_692_500" style="mask-type:luminance" maskUnits="userSpaceOnUse" x="28" y="0" width="153" height="93">
<path d="M180.95 0H28.7002V92.33H180.95V0Z" fill="white"/>
</mask>
<g mask="url(#mask0_692_500)">
<path d="M181.001 32.6201C180.039 32.2666 179.025 32.0741 178.001 32.0501C177.553 32.0454 177.111 31.95 176.701 31.7695C176.291 31.589 175.922 31.3272 175.616 31C175.311 30.6728 175.075 30.287 174.922 29.8659C174.77 29.4448 174.705 28.9971 174.73 28.5501C174.807 27.1168 174.552 25.6852 173.986 24.3663C173.42 23.0474 172.557 21.8768 171.465 20.9453C170.373 20.0139 169.081 19.3466 167.689 18.9954C166.298 18.6441 164.844 18.6184 163.441 18.9201C163.003 19.022 162.549 19.0335 162.107 18.9539C161.665 18.8743 161.244 18.7053 160.869 18.4572C160.495 18.2091 160.175 17.8871 159.929 17.5111C159.684 17.135 159.517 16.7127 159.441 16.2701C159.188 14.852 158.611 13.5115 157.755 12.3536C156.898 11.1958 155.785 10.252 154.502 9.59627C153.22 8.94052 151.803 8.5906 150.363 8.57391C148.922 8.55723 147.498 8.87424 146.201 9.5001C145.798 9.6964 145.361 9.80915 144.914 9.83152C144.467 9.8539 144.02 9.78544 143.601 9.63028C143.181 9.47512 142.797 9.23649 142.472 8.9288C142.147 8.62111 141.888 8.25075 141.711 7.8401C141.135 6.52412 140.264 5.35854 139.165 4.43398C138.066 3.50942 136.768 2.85078 135.373 2.50928C133.978 2.16777 132.523 2.15259 131.121 2.46492C129.72 2.77725 128.409 3.40867 127.291 4.3101C126.945 4.59354 126.545 4.80393 126.115 4.92858C125.686 5.05323 125.235 5.08955 124.792 5.03534C124.348 4.98114 123.919 4.83753 123.532 4.6132C123.145 4.38886 122.808 4.08845 122.541 3.7301C121.696 2.6054 120.608 1.68621 119.358 1.04128C118.108 0.396355 116.728 0.0423817 115.322 0.00583585C113.916 -0.03071 112.52 0.251117 111.238 0.83024C109.957 1.40936 108.822 2.27079 107.921 3.3501C107.381 4.00583 106.606 4.42499 105.762 4.51837C104.918 4.61175 104.071 4.37199 103.401 3.8501C102.295 2.97801 101.007 2.36767 99.6317 2.06491C98.2567 1.76216 96.831 1.77485 95.4617 2.10203C94.0923 2.42922 92.8148 3.0624 91.7252 3.95402C90.6356 4.84565 89.7622 5.97255 89.1705 7.2501C88.9856 7.65769 88.7199 8.02353 88.3895 8.32551C88.0592 8.6275 87.671 8.85934 87.2485 9.00703C86.826 9.15473 86.3779 9.21519 85.9314 9.18478C85.4848 9.15437 85.0491 9.03371 84.6505 8.8301C83.3695 8.1809 81.956 7.83616 80.5199 7.82274C79.0839 7.80933 77.6642 8.12759 76.3713 8.75274C75.0784 9.37789 73.9473 10.2931 73.066 11.427C72.1848 12.5609 71.5771 13.8829 71.2905 15.2901C71.2042 15.7258 71.0311 16.1396 70.7815 16.507C70.5319 16.8744 70.211 17.1878 69.8377 17.4285C69.4645 17.6692 69.0466 17.8324 68.609 17.9083C68.1714 17.9841 67.723 17.9712 67.2905 17.8701C65.8949 17.534 64.4406 17.5245 63.0408 17.8422C61.6409 18.16 60.3332 18.7964 59.2195 19.7021C58.1058 20.6078 57.2161 21.7582 56.6196 23.0639C56.0231 24.3696 55.736 25.7953 55.7805 27.2301C55.7966 27.6774 55.7224 28.1234 55.5623 28.5413C55.4022 28.9593 55.1595 29.3407 54.8486 29.6627C54.5378 29.9848 54.1652 30.2408 53.7532 30.4156C53.3411 30.5904 52.8981 30.6804 52.4505 30.6801C51.017 30.6789 49.6025 31.0084 48.317 31.643C47.0316 32.2776 45.9099 33.2001 45.0391 34.3389C44.1684 35.4777 43.572 36.802 43.2965 38.2088C43.021 39.6156 43.0737 41.067 43.4505 42.4501C43.5716 42.881 43.604 43.332 43.5458 43.7758C43.4876 44.2196 43.34 44.647 43.1119 45.0321C42.8838 45.4172 42.58 45.7521 42.2188 46.0164C41.8576 46.2808 41.4466 46.4691 41.0105 46.5701C39.6116 46.8963 38.3068 47.541 37.198 48.4541C36.0891 49.3673 35.206 50.5241 34.6176 51.8345C34.0292 53.1449 33.7513 54.5735 33.8056 56.0089C33.8598 57.4444 34.2448 58.8479 34.9305 60.1101C35.149 60.5008 35.2857 60.9319 35.3323 61.3772C35.3789 61.8224 35.3345 62.2725 35.2016 62.7C35.0688 63.1275 34.8504 63.5235 34.5596 63.8639C34.2689 64.2043 33.912 64.482 33.5105 64.6801C32.3887 65.2401 31.3909 66.02 30.5766 66.9735C29.7623 67.9269 29.1481 69.0344 28.7705 70.2301C46.2564 84.5506 68.1689 92.3613 90.7705 92.3301C110.011 92.334 128.827 86.674 144.873 76.0559C160.918 65.4378 173.483 50.3313 181.001 32.6201Z" fill="white"/>
</g>
</g>
<path d="M77.7803 89.77C77.7803 91.0022 77.4149 92.2067 76.7304 93.2312C76.0458 94.2558 75.0728 95.0543 73.9344 95.5258C72.7961 95.9974 71.5434 96.1207 70.3349 95.8803C69.1264 95.64 68.0163 95.0466 67.145 94.1753C66.2738 93.304 65.6804 92.194 65.44 90.9855C65.1996 89.777 65.323 88.5243 65.7945 87.3859C66.2661 86.2475 67.0646 85.2746 68.0891 84.59C69.1136 83.9054 70.3181 83.54 71.5503 83.54C72.3688 83.5387 73.1795 83.699 73.936 84.0116C74.6924 84.3242 75.3798 84.7831 75.9585 85.3618C76.5373 85.9406 76.9961 86.6279 77.3088 87.3844C77.6214 88.1408 77.7816 88.9515 77.7803 89.77Z" fill="#F7931E"/>
<path d="M164.92 89.77C164.92 91.0026 164.554 92.2076 163.869 93.2323C163.184 94.257 162.211 95.0555 161.072 95.5268C159.933 95.998 158.68 96.1208 157.471 95.8796C156.262 95.6384 155.152 95.0441 154.281 94.1718C153.41 93.2995 152.818 92.1885 152.578 90.9793C152.339 89.7702 152.464 88.5172 152.937 87.379C153.41 86.2408 154.21 85.2685 155.236 84.5851C156.262 83.9018 157.467 83.5381 158.7 83.54C159.518 83.54 160.327 83.7013 161.083 84.0145C161.838 84.3277 162.524 84.7867 163.102 85.3654C163.679 85.944 164.137 86.6309 164.449 87.3867C164.761 88.1425 164.921 88.9524 164.92 89.77Z" fill="#F7931E"/>
<path d="M127.005 117.008H111.685V70.6781H101.175V57.2822H127.005V117.008Z" fill="#F7931E"/>
<path d="M123.745 118.108H108.425V71.7782H97.9156V58.3823H123.745V118.108Z" fill="white"/>
</g>
<defs>
<clipPath id="clip0_692_500">
<rect width="202.04" height="217.89" fill="white"/>
</clipPath>
</defs>
</svg>
