<svg xmlns="http://www.w3.org/2000/svg" xmlns:xlink="http://www.w3.org/1999/xlink" viewBox="0 0 175.09 217.89"><defs><style>.cls-1{fill:#fff;}.cls-2{fill:none;}.cls-3{opacity:0.3;}.cls-4{clip-path:url(#clip-path);}.cls-5{fill:#636363;}.cls-6{fill:#c2c2c2;}.cls-7{fill:#959595;}.cls-8{fill:#c6c6c6;}.cls-9{opacity:0.22;}.cls-10{mask:url(#mask);}.cls-11{fill:#b5b5b5;}</style><clipPath id="clip-path" transform="translate(0.03 0)"><rect class="cls-2" width="175.07" height="217.89"/></clipPath><mask id="mask" x="1.76" y="0" width="152.27" height="92.33" maskUnits="userSpaceOnUse"><g transform="translate(0.03 0)"><g id="mask0_692_519" data-name="mask0 692 519"><path class="cls-1" d="M154,0H1.73V92.33H154Z"/></g></g></mask></defs><g id="Layer_2" data-name="Layer 2"><g id="Layer_1-2" data-name="Layer 1"><g class="cls-3"><g class="cls-4"><path class="cls-5" d="M128.27,217.89,87.81,202.33,47.35,217.89V102.74h80.92Z" transform="translate(0.03 0)"/><path class="cls-6" d="M171.88,85.89a3.33,3.33,0,0,1-.81-1,3.2,3.2,0,0,1-.33-1.29,3.24,3.24,0,0,1,.2-1.31,3.16,3.16,0,0,1,.7-1.13,9.46,9.46,0,0,0,2.13-3.68,9.39,9.39,0,0,0-1.36-8.17,9.37,9.37,0,0,0-3.21-2.79,3.41,3.41,0,0,1-1.66-2,3.5,3.5,0,0,1-.11-1.33,3.54,3.54,0,0,1,.42-1.26,9.33,9.33,0,0,0-5.75-13.68,3.3,3.3,0,0,1-2.5-2.86,3.32,3.32,0,0,1,.13-1.33A9.35,9.35,0,0,0,151,32a3.23,3.23,0,0,1-1.3-.28,3.19,3.19,0,0,1-1.08-.77,3.25,3.25,0,0,1-.7-1.13,3.5,3.5,0,0,1-.19-1.32,9.37,9.37,0,0,0-.74-4.18,9.39,9.39,0,0,0-6.29-5.38,9.39,9.39,0,0,0-4.25-.07,3.31,3.31,0,0,1-2.57-.47,3.37,3.37,0,0,1-.94-.94,3.5,3.5,0,0,1-.49-1.24,9.34,9.34,0,0,0-13.2-6.72,3.2,3.2,0,0,1-1.29.33,3.27,3.27,0,0,1-1.31-.2,3.4,3.4,0,0,1-1.13-.7,3.45,3.45,0,0,1-.76-1.09,9.28,9.28,0,0,0-2.54-3.41,9.32,9.32,0,0,0-11.87-.12,3.52,3.52,0,0,1-1.18.62A3.47,3.47,0,0,1,97.82,5a3.36,3.36,0,0,1-1.27-.43,3.32,3.32,0,0,1-1-.88A9.17,9.17,0,0,0,92.38,1,9.32,9.32,0,0,0,80.94,3.36a3.27,3.27,0,0,1-2.16,1.16,3.29,3.29,0,0,1-2.36-.67,9.39,9.39,0,0,0-3.77-1.79,9.27,9.27,0,0,0-4.16,0A9.28,9.28,0,0,0,62.2,7.25a3.32,3.32,0,0,1-.78,1.08A3.39,3.39,0,0,1,60.28,9,3.27,3.27,0,0,1,59,9.18a3.35,3.35,0,0,1-1.28-.35,9.33,9.33,0,0,0-13.37,6.46,3.37,3.37,0,0,1-.51,1.22,3.3,3.3,0,0,1-3.49,1.36,9.25,9.25,0,0,0-4.25,0,9.33,9.33,0,0,0-7.26,9.39,3.4,3.4,0,0,1-.93,2.44,3.34,3.34,0,0,1-2.4,1,9.28,9.28,0,0,0-4.13,1,9.39,9.39,0,0,0-3.27,2.7,9.21,9.21,0,0,0-1.74,3.86,9.34,9.34,0,0,0,.14,4.24,3.32,3.32,0,0,1,.09,1.33A3.31,3.31,0,0,1,14,46.57a9.31,9.31,0,0,0-3.82,1.88A9.33,9.33,0,0,0,7.89,60.11a3.26,3.26,0,0,1,.26,2.59,3.22,3.22,0,0,1-.64,1.16,3.36,3.36,0,0,1-1,.82A9.17,9.17,0,0,0,3.19,67.4a9.34,9.34,0,0,0,.49,11.86,3.17,3.17,0,0,1,.67,1.13,3.43,3.43,0,0,1,.17,1.31A3.35,3.35,0,0,1,4.17,83a3.28,3.28,0,0,1-.82,1A9.38,9.38,0,0,0,0,91.59a9.35,9.35,0,0,0,4,7.27,3.36,3.36,0,0,1,.93,1,3.29,3.29,0,0,1,.47,1.24,3.14,3.14,0,0,1-.05,1.33,3.32,3.32,0,0,1-.57,1.2,9.33,9.33,0,0,0,4.06,14.27,3.17,3.17,0,0,1,1.12.72,3.27,3.27,0,0,1,.75,1.09A3.48,3.48,0,0,1,11,121a3.41,3.41,0,0,1-.28,1.3,9.46,9.46,0,0,0-.78,4.2,9.25,9.25,0,0,0,1.18,4.1,9.28,9.28,0,0,0,6.85,4.7,3.39,3.39,0,0,1,1.26.44,3.32,3.32,0,0,1,1,.89,3.4,3.4,0,0,1,.55,1.21,3.31,3.31,0,0,1,0,1.33A9.34,9.34,0,0,0,30.82,150a3.28,3.28,0,0,1,1.32.14,3.22,3.22,0,0,1,1.16.64,3.32,3.32,0,0,1,1.16,2.33,9.32,9.32,0,0,0,1.2,4.08,9.37,9.37,0,0,0,6.86,4.64,9.34,9.34,0,0,0,4.23-.4,3.46,3.46,0,0,1,1.32-.17,3.14,3.14,0,0,1,1.27.36,3.21,3.21,0,0,1,1,.83,3.38,3.38,0,0,1,.62,1.17,9.27,9.27,0,0,0,2.11,3.69,9.33,9.33,0,0,0,11.77,1.56,3.3,3.3,0,0,1,1.24-.48,3.14,3.14,0,0,1,1.33.05,3.35,3.35,0,0,1,1.21.56,3.24,3.24,0,0,1,.88,1,9.38,9.38,0,0,0,2.91,3.1,9.23,9.23,0,0,0,4,1.49,9.48,9.48,0,0,0,4.23-.43,9.38,9.38,0,0,0,3.6-2.27,3.47,3.47,0,0,1,1.1-.75,3.35,3.35,0,0,1,2.61,0,3.29,3.29,0,0,1,1.08.77,9.41,9.41,0,0,0,3.55,2.34,9.34,9.34,0,0,0,11.21-3.9,3.24,3.24,0,0,1,.9-1,3.36,3.36,0,0,1,1.2-.55,3.31,3.31,0,0,1,1.33,0,3.23,3.23,0,0,1,1.23.5,9.27,9.27,0,0,0,4,1.46,9.34,9.34,0,0,0,7.81-2.74,9.4,9.4,0,0,0,2.2-3.64,3.22,3.22,0,0,1,.64-1.16,3.35,3.35,0,0,1,2.34-1.15,3.27,3.27,0,0,1,1.31.2,9.34,9.34,0,0,0,12.49-8,3.46,3.46,0,0,1,.37-1.26,3.33,3.33,0,0,1,.84-1,3.34,3.34,0,0,1,2.48-.72,9.31,9.31,0,0,0,4.22-.49,9.11,9.11,0,0,0,3.57-2.31,9.31,9.31,0,0,0,2.51-7.89,3.51,3.51,0,0,1,0-1.33,3.3,3.3,0,0,1,.58-1.19,3.1,3.1,0,0,1,1-.88,3.34,3.34,0,0,1,1.26-.41A9.34,9.34,0,0,0,163.69,124a3.44,3.44,0,0,1-.26-1.31,3.4,3.4,0,0,1,.28-1.29,3.51,3.51,0,0,1,.78-1.09,3.28,3.28,0,0,1,1.13-.69,9.56,9.56,0,0,0,3.57-2.34A9.35,9.35,0,0,0,170,105.4a3.4,3.4,0,0,1-.55-1.21,3.31,3.31,0,0,1,0-1.33,3.35,3.35,0,0,1,1.44-2.17,9.28,9.28,0,0,0,2.92-3.09,9.31,9.31,0,0,0-1.92-11.71" transform="translate(0.03 0)"/><path class="cls-7" d="M160.88,86.09a2.74,2.74,0,0,1-.71-.91,2.9,2.9,0,0,1-.29-1.12,2.66,2.66,0,0,1,.17-1.15,2.79,2.79,0,0,1,.61-1A8.12,8.12,0,0,0,162.75,75a8.07,8.07,0,0,0-4.21-5.83,2.89,2.89,0,0,1-1.44-1.75,2.8,2.8,0,0,1-.09-1.15,2.85,2.85,0,0,1,.36-1.1,8.15,8.15,0,0,0,1.06-3.54,8.12,8.12,0,0,0-6.06-8.35,2.71,2.71,0,0,1-1-.5,2.88,2.88,0,0,1-.76-.87,2.7,2.7,0,0,1-.36-1.1,2.79,2.79,0,0,1,.1-1.15,8.11,8.11,0,0,0-1.24-7.09,8,8,0,0,0-2.8-2.41,8.13,8.13,0,0,0-3.58-.92,2.85,2.85,0,0,1-1.12-.24,2.91,2.91,0,0,1-.94-.66,2.87,2.87,0,0,1-.6-1,2.71,2.71,0,0,1-.18-1.13A8.11,8.11,0,0,0,130,27.86a2.79,2.79,0,0,1-1.15,0,2.82,2.82,0,0,1-1.08-.43,2.75,2.75,0,0,1-.81-.82,2.94,2.94,0,0,1-.43-1.07,8.1,8.1,0,0,0-7.87-6.68,8.06,8.06,0,0,0-3.61.79,2.9,2.9,0,0,1-2.26.12,3.15,3.15,0,0,1-1-.61,2.85,2.85,0,0,1-.66-.95,8.15,8.15,0,0,0-5.5-4.64,8.26,8.26,0,0,0-3.7,0,8.12,8.12,0,0,0-3.33,1.6,2.87,2.87,0,0,1-1,.54,3,3,0,0,1-1.15.1,3,3,0,0,1-1.1-.37,3,3,0,0,1-.86-.77,8,8,0,0,0-2.77-2.34,8.12,8.12,0,0,0-3.51-.9,8.08,8.08,0,0,0-6.44,2.92,2.82,2.82,0,0,1-1.88,1,2.85,2.85,0,0,1-2-.58,8,8,0,0,0-6.91-1.5,8.07,8.07,0,0,0-5.46,4.5,2.83,2.83,0,0,1-.68.93,2.64,2.64,0,0,1-1,.59,3,3,0,0,1-1.15.16,2.93,2.93,0,0,1-1.11-.31,8.09,8.09,0,0,0-7.12,0A8.13,8.13,0,0,0,50,24.7a3.16,3.16,0,0,1-.43,1.1,3,3,0,0,1-.84.83,3,3,0,0,1-1.1.42A2.77,2.77,0,0,1,46.45,27a8.07,8.07,0,0,0-3.69,0,8.13,8.13,0,0,0-5.58,4.54,8,8,0,0,0-.73,3.62,2.77,2.77,0,0,1-.19,1.14,3.07,3.07,0,0,1-.62,1,2.82,2.82,0,0,1-1,.65,2.93,2.93,0,0,1-1.13.23A8,8,0,0,0,30,39a8.1,8.1,0,0,0-4.26,9.4,3,3,0,0,1,.08,1.15A2.89,2.89,0,0,1,23.57,52,8.11,8.11,0,0,0,18,56.53a8.07,8.07,0,0,0,.27,7.19,3.08,3.08,0,0,1,.36,1.11A2.86,2.86,0,0,1,18.53,66a2.85,2.85,0,0,1-1.48,1.73,8.11,8.11,0,0,0-4.34,5.74,8.22,8.22,0,0,0,.15,3.69,8.1,8.1,0,0,0,1.77,3.24,3,3,0,0,1,.59,1,3,3,0,0,1,.16,1.15,2.83,2.83,0,0,1-.31,1.11,2.9,2.9,0,0,1-.72.91,8.05,8.05,0,0,0-2.22,3,8.14,8.14,0,0,0-.68,3.64,8.15,8.15,0,0,0,3.47,6.3,2.88,2.88,0,0,1,.8.83,2.92,2.92,0,0,1,.37,2.23,2.92,2.92,0,0,1-.49,1,8.09,8.09,0,0,0,.49,10.31,8.11,8.11,0,0,0,3,2.1,2.83,2.83,0,0,1,1,.62,2.84,2.84,0,0,1,.88,2.09,2.76,2.76,0,0,1-.24,1.13,8.14,8.14,0,0,0-.64,3.61,8.13,8.13,0,0,0,3.49,6.25A8.1,8.1,0,0,0,27,129a2.78,2.78,0,0,1,1.09.38,2.88,2.88,0,0,1,1.34,1.83,2.84,2.84,0,0,1,0,1.16,8.08,8.08,0,0,0,.2,3.69,8.08,8.08,0,0,0,4.87,5.3,8,8,0,0,0,3.66.51,2.79,2.79,0,0,1,1.15.12,2.83,2.83,0,0,1,1.72,1.46,2.9,2.9,0,0,1,.29,1.12,8.07,8.07,0,0,0,3.55,6.26,8.13,8.13,0,0,0,7.14,1,2.81,2.81,0,0,1,1.15-.15,2.67,2.67,0,0,1,1.11.31,2.63,2.63,0,0,1,.9.72,2.89,2.89,0,0,1,.55,1A8.12,8.12,0,0,0,60.66,159a8,8,0,0,0,3.66.48,8.11,8.11,0,0,0,3.5-1.19,2.92,2.92,0,0,1,2.21-.34,2.88,2.88,0,0,1,1,.49,2.81,2.81,0,0,1,.76.85,8.11,8.11,0,0,0,12.8,1.65,3,3,0,0,1,.95-.66,2.89,2.89,0,0,1,2.26,0,3,3,0,0,1,1,.66,8.19,8.19,0,0,0,3.08,2,8.18,8.18,0,0,0,7.16-.76,8.13,8.13,0,0,0,2.59-2.63,2.76,2.76,0,0,1,.78-.85,2.72,2.72,0,0,1,1-.48,2.83,2.83,0,0,1,1.16,0,2.94,2.94,0,0,1,1.07.43,8.17,8.17,0,0,0,7.15.88,8.25,8.25,0,0,0,3.11-2,8,8,0,0,0,1.92-3.16,2.65,2.65,0,0,1,.56-1,2.74,2.74,0,0,1,.91-.71,2.59,2.59,0,0,1,1.12-.29,2.62,2.62,0,0,1,1.14.17,8.14,8.14,0,0,0,7.16-.81,8.07,8.07,0,0,0,3.7-6.19,2.83,2.83,0,0,1,.31-1.11A2.89,2.89,0,0,1,134.5,143a2.79,2.79,0,0,1,1.15-.1,8.15,8.15,0,0,0,6.78-2.42,8.11,8.11,0,0,0,2.17-6.87,2.79,2.79,0,0,1,.05-1.15,2.75,2.75,0,0,1,.5-1.05,2.85,2.85,0,0,1,2-1.12,8.07,8.07,0,0,0,3.48-1.25,8.09,8.09,0,0,0,3.09-9.85,2.89,2.89,0,0,1,.68-3.21,2.83,2.83,0,0,1,1-.61,8.29,8.29,0,0,0,3.1-2,8.09,8.09,0,0,0,.73-10.3,3,3,0,0,1-.44-1,2.94,2.94,0,0,1,.45-2.18A2.9,2.9,0,0,1,160,99a8.11,8.11,0,0,0,3.63-6.22,8.16,8.16,0,0,0-2.75-6.65" transform="translate(0.03 0)"/><path class="cls-1" d="M154.87,86.2a2.67,2.67,0,0,1-.65-.84,2.61,2.61,0,0,1-.26-1,2.7,2.7,0,0,1,.15-1,2.9,2.9,0,0,1,.56-.9,7.49,7.49,0,0,0,1.7-2.94,7.44,7.44,0,0,0-3.64-8.74,2.59,2.59,0,0,1-.84-.67,2.63,2.63,0,0,1-.5-1,2.57,2.57,0,0,1-.08-1.07,2.63,2.63,0,0,1,.34-1,7.43,7.43,0,0,0,.41-6.6,7.35,7.35,0,0,0-2-2.75,7.5,7.5,0,0,0-3-1.57,2.67,2.67,0,0,1-1-.46,2.7,2.7,0,0,1-.7-.8,2.73,2.73,0,0,1-.32-1,2.7,2.7,0,0,1,.09-1.06A7.44,7.44,0,0,0,144,46.24,7.53,7.53,0,0,0,141.46,44a7.4,7.4,0,0,0-3.29-.84,2.66,2.66,0,0,1-1-.22,2.78,2.78,0,0,1-.86-.62,2.63,2.63,0,0,1-.56-.9,2.68,2.68,0,0,1-.15-1.05,7.47,7.47,0,0,0-9-7.69,2.66,2.66,0,0,1-2-.38,2.68,2.68,0,0,1-.75-.75,2.74,2.74,0,0,1-.39-1,7.39,7.39,0,0,0-3.93-5.31,7.44,7.44,0,0,0-6.61-.09,2.66,2.66,0,0,1-2.07.1,2.4,2.4,0,0,1-.9-.56,2.64,2.64,0,0,1-.61-.87,7.45,7.45,0,0,0-2-2.72,7.47,7.47,0,0,0-9.48-.1,2.65,2.65,0,0,1-.94.49,2.7,2.7,0,0,1-1.06.09,2.63,2.63,0,0,1-1-.34,2.41,2.41,0,0,1-.79-.7,7.29,7.29,0,0,0-2.54-2.14,7.45,7.45,0,0,0-9.13,1.84,2.61,2.61,0,0,1-3.61.4,7.43,7.43,0,0,0-11.35,2.71,2.67,2.67,0,0,1-.62.86,2.84,2.84,0,0,1-.91.55,2.92,2.92,0,0,1-1.06.14,2.64,2.64,0,0,1-1-.28,7.63,7.63,0,0,0-3.31-.82,7.46,7.46,0,0,0-7.39,6,2.73,2.73,0,0,1-.41,1,2.82,2.82,0,0,1-.76.74,2.64,2.64,0,0,1-2,.34,7.33,7.33,0,0,0-3.39,0,7.38,7.38,0,0,0-5.13,4.17,7.34,7.34,0,0,0-.67,3.33,2.6,2.6,0,0,1-.17,1A2.61,2.61,0,0,1,39,41.9a2.76,2.76,0,0,1-1,.23,7.57,7.57,0,0,0-3.31.76,7.44,7.44,0,0,0-3.9,8.63,2.59,2.59,0,0,1-.27,2.06,2.56,2.56,0,0,1-.71.79,2.67,2.67,0,0,1-1,.44A7.43,7.43,0,0,0,23.75,59a7.51,7.51,0,0,0,.25,6.6,2.78,2.78,0,0,1,.32,1,2.91,2.91,0,0,1-.11,1.06,2.82,2.82,0,0,1-.51.93,2.79,2.79,0,0,1-.84.65,7.45,7.45,0,0,0-2.22,11.64,2.47,2.47,0,0,1,.54.91,2.68,2.68,0,0,1,.15,1.05,2.78,2.78,0,0,1-.29,1,2.66,2.66,0,0,1-.66.83,7.45,7.45,0,0,0,.52,11.84,2.55,2.55,0,0,1,.74.76,2.72,2.72,0,0,1,.38,1,2.53,2.53,0,0,1,0,1.06,2.64,2.64,0,0,1-.45,1,7.43,7.43,0,0,0-1.36,3.11A7.42,7.42,0,0,0,22,109.79a7.42,7.42,0,0,0,2.79,1.93,2.68,2.68,0,0,1,1.49,1.44,2.62,2.62,0,0,1,0,2.08,7.46,7.46,0,0,0,2.59,9.1A7.46,7.46,0,0,0,32,125.58a2.78,2.78,0,0,1,1,.35,2.69,2.69,0,0,1,1.22,1.68,2.7,2.7,0,0,1,0,1.06A7.43,7.43,0,0,0,36.1,135a7.41,7.41,0,0,0,6.15,2.38,2.66,2.66,0,0,1,1,.11,2.69,2.69,0,0,1,1.58,1.35,2.67,2.67,0,0,1,.27,1,7.38,7.38,0,0,0,1,3.27A7.45,7.45,0,0,0,55,146.51a2.67,2.67,0,0,1,1-.14,2.6,2.6,0,0,1,1,.29,2.66,2.66,0,0,1,.83.66,2.82,2.82,0,0,1,.49.94,7.39,7.39,0,0,0,1.69,3,7.31,7.31,0,0,0,2.82,1.89,7.4,7.4,0,0,0,3.36.45,7.49,7.49,0,0,0,3.22-1.1,2.64,2.64,0,0,1,2-.34,2.68,2.68,0,0,1,1.66,1.25,7.44,7.44,0,0,0,2.32,2.48A7.28,7.28,0,0,0,78.69,157a7.41,7.41,0,0,0,6.25-2.15,2.79,2.79,0,0,1,.87-.61,2.68,2.68,0,0,1,2.08,0,2.79,2.79,0,0,1,.87.61,7.57,7.57,0,0,0,2.83,1.87,7.45,7.45,0,0,0,9-3.11,2.55,2.55,0,0,1,.72-.78,2.7,2.7,0,0,1,1-.44,2.57,2.57,0,0,1,1.07,0,2.52,2.52,0,0,1,1,.39,7.47,7.47,0,0,0,3.19,1.17,7.29,7.29,0,0,0,3.37-.36,7.38,7.38,0,0,0,4.62-4.73,2.73,2.73,0,0,1,.51-.93,2.79,2.79,0,0,1,.84-.65,2.62,2.62,0,0,1,1-.27,2.69,2.69,0,0,1,1,.16,7.45,7.45,0,0,0,9-3.16,7.45,7.45,0,0,0,1-3.24,2.6,2.6,0,0,1,.29-1,2.66,2.66,0,0,1,.66-.83,2.88,2.88,0,0,1,.93-.5,2.73,2.73,0,0,1,1.06-.09,7.4,7.4,0,0,0,6.23-2.23,7.52,7.52,0,0,0,1.74-2.91,7.64,7.64,0,0,0,.26-3.39,2.66,2.66,0,0,1,.06-1.05,2.58,2.58,0,0,1,.46-.94,2.7,2.7,0,0,1,1.78-1,7.41,7.41,0,0,0,3.18-1.16,7.5,7.5,0,0,0,2.34-2.45,7.44,7.44,0,0,0,.48-6.58,2.5,2.5,0,0,1-.2-1,2.65,2.65,0,0,1,.83-1.91,2.74,2.74,0,0,1,.91-.55,7.41,7.41,0,0,0,2.84-1.87,7.47,7.47,0,0,0,.67-9.45,2.67,2.67,0,0,1-.44-1,2.7,2.7,0,0,1,0-1.06,2.54,2.54,0,0,1,.4-1,2.68,2.68,0,0,1,.75-.75,7.44,7.44,0,0,0,2.33-2.47,7.3,7.3,0,0,0,1-3.24,7.41,7.41,0,0,0-2.52-6.11" transform="translate(0.03 0)"/><path class="cls-8" d="M146.19,88.7a58.65,58.65,0,1,1-4.46-22.43A58.62,58.62,0,0,1,146.19,88.7Z" transform="translate(0.03 0)"/><g class="cls-9"><g class="cls-10"><path class="cls-1" d="M154,32.62a9.61,9.61,0,0,0-3-.57,3.23,3.23,0,0,1-1.3-.28,3.19,3.19,0,0,1-1.08-.77,3.25,3.25,0,0,1-.7-1.13,3.5,3.5,0,0,1-.19-1.32,9.32,9.32,0,0,0-3.26-7.6,9.26,9.26,0,0,0-8-2,3.31,3.31,0,0,1-2.57-.47,3.37,3.37,0,0,1-.94-.94,3.5,3.5,0,0,1-.49-1.24,9.37,9.37,0,0,0-4.94-6.67,9.34,9.34,0,0,0-8.29-.1,3.2,3.2,0,0,1-1.29.33,3.31,3.31,0,0,1-2.44-.9,3.45,3.45,0,0,1-.76-1.09,9.28,9.28,0,0,0-2.54-3.41,9.32,9.32,0,0,0-11.87-.12,3.52,3.52,0,0,1-1.18.62A3.47,3.47,0,0,1,97.82,5a3.25,3.25,0,0,1-1.26-.43,3.24,3.24,0,0,1-1-.88A9.29,9.29,0,0,0,88.34,0a9.31,9.31,0,0,0-7.4,3.34,3.26,3.26,0,0,1-2.16,1.17,3.29,3.29,0,0,1-2.36-.67,9.39,9.39,0,0,0-3.77-1.79,9.27,9.27,0,0,0-4.16,0A9.28,9.28,0,0,0,62.2,7.25a3.32,3.32,0,0,1-.78,1.08A3.39,3.39,0,0,1,60.28,9,3.27,3.27,0,0,1,59,9.18a3.35,3.35,0,0,1-1.28-.35,9.33,9.33,0,0,0-13.37,6.46,3.37,3.37,0,0,1-.51,1.22,3.3,3.3,0,0,1-3.49,1.36,9.25,9.25,0,0,0-4.25,0,9.33,9.33,0,0,0-7.26,9.39,3.29,3.29,0,0,1-.93,2.44,3.34,3.34,0,0,1-2.4,1,9.3,9.3,0,0,0-7.41,3.66,9.35,9.35,0,0,0-1.59,8.11A3.33,3.33,0,0,1,16.12,45a3.37,3.37,0,0,1-.9,1,3.45,3.45,0,0,1-1.22.55,9.31,9.31,0,0,0-3.82,1.88A9.33,9.33,0,0,0,7.89,60.11a3.26,3.26,0,0,1,.26,2.59,3.22,3.22,0,0,1-.64,1.16,3.36,3.36,0,0,1-1,.82,9.3,9.3,0,0,0-4.73,5.55,97.58,97.58,0,0,0,62,22.1,98.14,98.14,0,0,0,54.12-16.27A98.13,98.13,0,0,0,154,32.62Z" transform="translate(0.03 0)"/></g></g><path class="cls-7" d="M50.8,89.77a6.22,6.22,0,0,1-7.44,6.09A6.24,6.24,0,0,1,38.48,91,6.23,6.23,0,0,1,49,85.36a6.29,6.29,0,0,1,1.81,4.41Z" transform="translate(0.03 0)"/><path class="cls-7" d="M137.94,89.77a6.22,6.22,0,0,1-7.44,6.09A6.24,6.24,0,0,1,125.62,91a6.22,6.22,0,0,1,8.48-7,6,6,0,0,1,2,1.35,6.17,6.17,0,0,1,1.35,2A6.23,6.23,0,0,1,137.94,89.77Z" transform="translate(0.03 0)"/><path class="cls-11" d="M116.13,67.8v9.4q0,5.91-5.92,8.58l-24,11a3.15,3.15,0,0,0-2.07,3.11v2.67h32.71v11.84H69.21v-17q0-6.08,4.29-7.92l25.61-11.7a3.13,3.13,0,0,0,2.07-3.1V69.42a2.62,2.62,0,0,0-3-3H87.86a2.61,2.61,0,0,0-3,3v7H70V67.8Q70,54.61,84.6,54.62h16.87Q116.13,54.62,116.13,67.8Z" transform="translate(0.03 0)"/><path class="cls-1" d="M110.18,69.56V79q0,5.91-5.92,8.58l-24,10.95a3.15,3.15,0,0,0-2.07,3.11v2.67h32.71v11.84H63.26v-17q0-6.07,4.29-7.92l25.61-11.7a3.13,3.13,0,0,0,2.07-3.11V71.18a2.62,2.62,0,0,0-3-3H81.91a2.61,2.61,0,0,0-3,3v7H64V69.56q0-13.19,14.65-13.18H95.52Q110.18,56.38,110.18,69.56Z" transform="translate(0.03 0)"/></g></g></g></g></svg>